 <!DOCTYPE svg PUBLIC "-//W3C//DTD SVG 1.1//EN" "http://www.w3.org/Graphics/SVG/1.1/DTD/svg11.dtd">
<svg xmlns="http://www.w3.org/2000/svg" width="865.76" height="682.89" viewBox="0 0 865.76 682.89">
<defs>
<style xmlns="http://www.w3.org/1999/xhtml">*, ::after, ::before { box-sizing: border-box; }
img, svg { vertical-align: middle; }
</style>
<style xmlns="http://www.w3.org/1999/xhtml">*, body, html { -webkit-font-smoothing: antialiased; }
img, svg { max-width: 100%; }
</style>
</defs>
<path d="M834.66,295.51,693.49,668.11H175.33A41.27,41.27,0,0,1,135,635.55L52,252A45.38,45.38,0,0,1,80.45,200L348.52,99.3,358,95.74l10.81-4.06,127-47.7,4.05-1.51,29-10.9a42.57,42.57,0,0,1,41.68,6.73l74.62,60.26,8.37,6.75.38.31,21.62,17.46,143.9,116.18A49.67,49.67,0,0,1,834.66,295.51Z" fill="#0071f2" data-primary="true"/>
<path d="M834.66,295.51,693.49,668.11H175.33A41.27,41.27,0,0,1,135,635.55L52,252A45.38,45.38,0,0,1,80.45,200L348.52,99.3,358,95.74l10.81-4.06,127-47.7,4.05-1.51,29-10.9a42.57,42.57,0,0,1,41.68,6.73l74.62,60.26,8.37,6.75.38.31,21.62,17.46,143.9,116.18A49.67,49.67,0,0,1,834.66,295.51Z" fill="#fff" opacity="0.7"/>
<path d="M740.87,416,736,432.66l-11.33,38.81L721,484.09c-49.67-19.87-79.47-61-79.47-61-16.18-22.79-39.2-32.24-57.63-36.07a110.84,110.84,0,0,0-30.35-2.24l0,0c75.81-44.21,123.49-5.16,133,3.92a52.09,52.09,0,0,0,5.49,4.54C720,413.37,740.87,416,740.87,416Z" fill="#0071f2" data-primary="true"/>
<path d="M713.77,406.43l-3.16,11.17-12.31-7.3s-10-7.56-19.2-13l-3.3-2,7.36-9.74,3.44,3s3.54,3.05,5.49,4.55l6.51,4.47,3.52,2.24,3.28,2S712.49,406,713.77,406.43Z" fill="#2f2e41" data-secondary="true"/>
<path d="M246,411.53l-17.37-4.07s-7.1,12.77-5.68,25.54l13.19,6.32S239.21,422.68,246,411.53Z" fill="#f9b499"/>
<path d="M198.79,418.81l-2.56-.64a2.65,2.65,0,0,1-1.76-3.69L201.25,400a5,5,0,0,1,5.87-2.67l21.23,6.08a1.94,1.94,0,0,1,1.08,3C227,409.85,222.91,418,222.91,433c0,0,2.84,4.26-7.09,14.19,0,0-11.35,11.36-11.35,17,0,0-2.84,11.36-15.61,8.52,0,0-7.1-2.84-2.84-15.61C186,457.13,191.69,427.33,198.79,418.81Z" fill="#0071f2" data-primary="true"/>
<path d="M246.77,410.19c-2.27,3.58-8.33,14.63-11.9,35.58a4.86,4.86,0,0,0,2.81,5.27l74,33s18.56,14.91,42.93-10.28c0,0,99.58-79.12,76.88-124.53l-56.74-19.85-50.36,96.72-75.28-16.94A2.23,2.23,0,0,0,246.77,410.19Z" fill="#2f2e41" data-secondary="true"/>
<path d="M246.77,410.19c-2.27,3.58-8.33,14.63-11.9,35.58a4.86,4.86,0,0,0,2.81,5.27l74,33s18.56,14.91,42.93-10.28c0,0,99.58-79.12,76.88-124.53l-56.74-19.85-50.36,96.72-75.28-16.94A2.23,2.23,0,0,0,246.77,410.19Z" opacity="0.2"/>
<path d="M479.43,304.12l14.92,13s9.43,6.64,19.42-7.56c0,0,25.6-35.47,37-65.27,0,0,32.64-1.42,28.38-12.77,0,0,4.26-5.68-1.42-8.52,0,0,3.05-2.4-.6-6.17,0,0,11.42-1.81,14.19-6.1a1.87,1.87,0,0,0-1.4-2.83c-2.41-.29-7.69.15-19.28,3.75,0,0-21.29,7.09-28.39,18.45l-42.57,51.08-5-5S489,294.45,479.43,304.12Z" fill="#f9b499"/>
<path d="M499.63,281.16c-2.29,3.09-3.23,6.34-4.25,9.94-1.07-3.65.58-8.43,4.25-9.94Z" fill="#f7a48b"/>
<path d="M572.58,240.29c-3-.77-5.81-5.27-2.66-7.58,1.37-.91,3.09-.71,4.63-1s3-.23,4.55-.25c-1.47.4-3,.75-4.44,1s-3,.24-4.15,1c-2.53,2-.08,5.42,2.07,6.77Z" fill="#f7a48b"/>
<path d="M569.57,233.74c-2,0-4.41-.38-5.47-2.36a4.39,4.39,0,0,1,1.85-5.75c3.72-1.68,7.65-2.94,11.73-2.65a38.73,38.73,0,0,0-11.23,3.51A3.64,3.64,0,0,0,564.8,231c.79,1.77,3,2.37,4.77,2.7Z" fill="#f7a48b"/>
<path d="M555.14,218.75s2.17,3.43,7.77,3.08a10.49,10.49,0,0,0,3.11-.76c2-.79,6-1.87,6.21,2.23a1,1,0,0,1-.45.86c-1.18.78-4.75,2.84-11.35,4.2,0,0,2.08,4.79-8.07,5.38" fill="#f9b499" stroke="#f7a48b" stroke-miterlimit="10"/>
<path d="M569,220.34a19.23,19.23,0,0,1,8.11-3.53,19.1,19.1,0,0,1-8.11,3.53Z" fill="#f7a48b"/>
<path d="M332,268.9l27.1,19.36-5.67,34.06,78,27s22.7-25.54,29.8-61l15.61,17s5.67,1.42,19.86-29.8L474,245.11a43.55,43.55,0,0,0-6.6-7c-7.29-6.22-23-18.85-29.15-17.84l-28-4.34s-32.64-4.26-62.44,28.38L331.43,264.4A3.12,3.12,0,0,0,332,268.9Z" fill="#0071f2" data-primary="true"/>
<path d="M617.42,258.46l-22.71-12.77,68.45-44.91,5.07,81.71L644,269.91s-18.85,25.43-57.51,43.78c-1.58.75-3.2,1.43-4.82,2.11-5.54,2.32-25.83,12.55-44.1,44.11-1.52,2.64-3.09,5.26-4.67,7.86-8,13.19-31.54,53.48-43.2,90.78,0,0-29.8,88-107.85,114.94s-126.3,7.1-126.3,7.1S214.4,566.4,176.08,582c0,0-25.54,7.09-46.83,25.54l-14.19-24.12s48.65-36.21,104.53-35.88a98.3,98.3,0,0,1,28.55,4.64c24,7.42,96.4,23.87,159.25-22.69,0,0,39.74-28.38,62.44-97.92,0,0,38.72-99,86.06-131.79a129.5,129.5,0,0,1,18.83-10.16,138.69,138.69,0,0,0,31.08-19.14C610.64,266.5,615.05,262.24,617.42,258.46Z" fill="#0071f2" data-primary="true"/>
<path d="M617.42,258.46l-22.71-12.77,68.45-44.91,5.07,81.71L644,269.91s-18.85,25.43-57.51,43.78c-1.58.75-3.2,1.43-4.82,2.11-5.54,2.32-25.83,12.55-44.1,44.11-1.52,2.64-3.09,5.26-4.67,7.86-8,13.19-31.54,53.48-43.2,90.78,0,0-29.8,88-107.85,114.94s-126.3,7.1-126.3,7.1S214.4,566.4,176.08,582c0,0-25.54,7.09-46.83,25.54l-14.19-24.12s48.65-36.21,104.53-35.88a98.3,98.3,0,0,1,28.55,4.64c24,7.42,96.4,23.87,159.25-22.69,0,0,39.74-28.38,62.44-97.92,0,0,38.72-99,86.06-131.79a129.5,129.5,0,0,1,18.83-10.16,138.69,138.69,0,0,0,31.08-19.14C610.64,266.5,615.05,262.24,617.42,258.46Z" fill="#fff" opacity="0.3"/>
<path d="M543.23,416.24c-1.38.39-2.42.7-3.07.9-.1,0-.14-.11-.06-.17l0,0C540.35,416.9,541.41,416.61,543.23,416.24Z" fill="none" stroke="red" stroke-miterlimit="10" stroke-width="0.5"/>
<path d="M724.68,471.47l-1.36,4.69,1.32-4.7Z" fill="none" stroke="red" stroke-miterlimit="10" stroke-width="0.5"/>
<path d="M723.32,425.14l3-13.23A123.37,123.37,0,0,0,740.87,416L736,432.66Z" fill="#2f2e41" data-secondary="true"/>
<path d="M656.17,370.08s-3.28,9-6.12,13.26a127.76,127.76,0,0,1,15.74,6.6l6-12.33S661.41,372,656.17,370.08Z" fill="#2f2e41" data-secondary="true"/>
<path d="M624.07,364.06s-1,9.89-3.82,12.45a125.65,125.65,0,0,1,15.91,2.36s4.1-8.33,3.32-13.28A119.94,119.94,0,0,0,624.07,364.06Z" fill="#2f2e41" data-secondary="true"/>
<path d="M585.79,370.08a12.44,12.44,0,0,1-2.41,8.07l13.68-1.54s4.12-5.15,4.43-10.57A132.53,132.53,0,0,0,585.79,370.08Z" fill="#2f2e41" data-secondary="true"/>
<path d="M597.06,376.61l-2.33,4.49s10.3,1,19.33,2.34a26.44,26.44,0,0,0,6.19-6.93S606.51,375.56,597.06,376.61Z" fill="#2f2e41" data-secondary="true"/>
<path d="M650.05,383.34l-7.32,8.54c-4.51-1.86-9-3.42-13.38-4.74,1.59-1.28,5.89-5,6.81-8.27C636.16,378.87,644.38,380.5,650.05,383.34Z" fill="#2f2e41" data-secondary="true"/>
<path d="M657.09,398.76l8.7-8.82,10,5.4-8.52,9.56S664.13,402.82,657.09,398.76Z" fill="#2f2e41" data-secondary="true"/>
<polygon points="680.53 413.75 687.09 402.39 698.3 410.3 693.54 422.8 680.53 413.75" fill="#2f2e41" data-secondary="true"/>
<polygon points="706.61 432.38 710.61 417.6 723.32 425.14 719.53 442.72 706.61 432.38" fill="#2f2e41" data-secondary="true"/>
<path d="M719.53,442.72l-8.61,19.62s10.26,7.84,13.72,9.12l5.24-18.62A54.48,54.48,0,0,0,719.53,442.72Z" fill="#2f2e41" data-secondary="true"/>
<polygon points="685.67 442.19 693.54 422.8 706.61 432.38 698.62 452.77 685.67 442.19" fill="#2f2e41" data-secondary="true"/>
<polygon points="669.74 428.76 680.53 413.75 667.28 404.9 655.24 416.26 669.74 428.76" fill="#2f2e41" data-secondary="true"/>
<path d="M631.53,400.43l11.2-8.55,14.36,6.88-12.78,8.63S635.72,401.92,631.53,400.43Z" fill="#2f2e41" data-secondary="true"/>
<path d="M632.77,412.59l11.54-5.2,10.93,8.87-12.94,7.82S633.93,413.47,632.77,412.59Z" fill="#2f2e41" data-secondary="true"/>
<path d="M602.75,390.8l11.31-7.36s8.78,1.83,15.29,3.7L617.41,395S605.12,391.16,602.75,390.8Z" fill="#2f2e41" data-secondary="true"/>
<path d="M659.75,443.37l10-14.61,15.93,13.43-9.87,15.27S665.19,449.47,659.75,443.37Z" fill="#2f2e41" data-secondary="true"/>
<path d="M698.62,452.77l-8.15,15.29s6.58,4.42,13.59,8.1l6.86-13.82Z" fill="#2f2e41" data-secondary="true"/>
<path d="M692.09,393.2a19.15,19.15,0,0,1-5,9.19,19.06,19.06,0,0,1,5-9.19Z" opacity="0.2"/>
<path d="M700.69,399a23.13,23.13,0,0,1-2.39,11.3,23.27,23.27,0,0,1,2.39-11.3Z" opacity="0.2"/>
<path d="M742.54,409.72,665.66,662.89h11.52l75.6-250.06a5.35,5.35,0,0,0-3.88-6.76h0A5.34,5.34,0,0,0,742.54,409.72Z" fill="#ccc"/>
<path d="M597.09,475.58H612.2a5.21,5.21,0,0,1,5.21,5.21v182.1a0,0,0,0,1,0,0H591.87a0,0,0,0,1,0,0V480.79A5.21,5.21,0,0,1,597.09,475.58Z" fill="none" stroke="#ccc" stroke-miterlimit="10"/>
<rect x="591.87" y="520.99" width="25.54" height="141.91" fill="#0071f2" data-primary="true"/>
<path d="M536.07,499h15.11a5.21,5.21,0,0,1,5.21,5.21V662.89a0,0,0,0,1,0,0H530.85a0,0,0,0,1,0,0V504.2A5.21,5.21,0,0,1,536.07,499Z" fill="none" stroke="#ccc" stroke-miterlimit="10"/>
<rect x="530.85" y="564.98" width="25.54" height="97.92" fill="#2f2e41" data-secondary="true"/>
<path d="M411.19,588.39H426.3a5.21,5.21,0,0,1,5.21,5.21v69.29a0,0,0,0,1,0,0H406a0,0,0,0,1,0,0V593.61A5.21,5.21,0,0,1,411.19,588.39Z" fill="none" stroke="#ccc" stroke-miterlimit="10"/>
<rect x="405.97" y="607.55" width="25.54" height="55.34" fill="#2f2e41" data-secondary="true"/>
<path d="M287.73,608.26h15.11a5.21,5.21,0,0,1,5.21,5.21v49.42a0,0,0,0,1,0,0H282.51a0,0,0,0,1,0,0V613.47A5.21,5.21,0,0,1,287.73,608.26Z" fill="none" stroke="#ccc" stroke-miterlimit="10"/>
<rect x="282.51" y="624.58" width="25.54" height="38.31" fill="#b3b3b3"/>
<path d="M225.29,635.22H240.4a5.21,5.21,0,0,1,5.21,5.21v22.46a0,0,0,0,1,0,0H220.08a0,0,0,0,1,0,0V640.44A5.21,5.21,0,0,1,225.29,635.22Z" fill="none" stroke="#ccc" stroke-miterlimit="10"/>
<rect x="220.08" y="651.54" width="25.54" height="11.35" fill="#b3b3b3"/>
<path d="M164.27,648.7h15.11a5.21,5.21,0,0,1,5.21,5.21v9a0,0,0,0,1,0,0H159.06a0,0,0,0,1,0,0v-9A5.21,5.21,0,0,1,164.27,648.7Z" fill="none" stroke="#ccc" stroke-miterlimit="10"/>
<rect x="159.06" y="657.22" width="25.54" height="5.68" fill="#2f2e41" data-secondary="true"/>
<path d="M348.75,635.22h15.11a5.21,5.21,0,0,1,5.21,5.21v22.46a0,0,0,0,1,0,0H343.53a0,0,0,0,1,0,0V640.44A5.21,5.21,0,0,1,348.75,635.22Z" fill="none" stroke="#ccc" stroke-miterlimit="10"/>
<rect x="343.53" y="654.38" width="25.54" height="8.51" fill="#0071f2" data-primary="true"/>
<path d="M473.63,599.74h15.11A5.21,5.21,0,0,1,494,605v57.93a0,0,0,0,1,0,0H468.41a0,0,0,0,1,0,0V605A5.21,5.21,0,0,1,473.63,599.74Z" fill="none" stroke="#ccc" stroke-miterlimit="10"/>
<rect x="468.41" y="625.17" width="25.54" height="37.73" fill="#b3b3b3"/>
<path d="M208.64,310.2l-.92.93-.05.05a7.22,7.22,0,0,1-1.5,1c-2.64,1.28-5.89.81-9.37-1h0c-6.43-3.45-13.57-11.64-18.78-22.39-8-16.58-8.45-33-.93-36.62a7,7,0,0,1,2.68-.68h.14c7.57-.41,18.24,9.46,25.33,24.11C212.24,290,213.46,304.38,208.64,310.2Z" fill="#ccc"/>
<path d="M208.64,310.2a8.1,8.1,0,0,1-.92.93Z" fill="none" stroke="red" stroke-miterlimit="10" stroke-width="0.5"/>
<path d="M208.64,310.2c2-2.46,3-6.43,2.89-11.3-.13-6.64-2.25-15-6.3-23.34-7.09-14.65-17.76-24.52-25.33-24.11l45.23-6.67,2-.29a3.21,3.21,0,0,1,2.68.83c3.51,3.27,13.62,13.77,14.37,27.16a3.61,3.61,0,0,1-1.06,2.72Z" fill="#0071f2" data-primary="true"/>
<path d="M208.64,310.2l-.92.93-.05.05a7.22,7.22,0,0,1-1.5,1c-2.64,1.28-5.89.81-9.37-1v0s8.63-7.45,5.24-23.92a43.1,43.1,0,0,0-2.54-7.93c-3-7.24-11-24.43-19.6-27.83,7.57-.41,18.24,9.46,25.33,24.11C212.24,290,213.46,304.38,208.64,310.2Z" opacity="0.09"/>
<path d="M189.34,294.89c1.59-1.93.91-6.66-1.78-11.29-2.44-4.21-5.76-7.05-8.2-7.2l18.38-13c6,6.35,12,24,12,24Z" fill="#b3b3b3"/>
<path d="M189.34,294.89h0a2,2,0,0,1-.65.55c-2.37,1.38-6.73-1.7-9.71-6.88s-3.49-10.49-1.12-11.86a2.49,2.49,0,0,1,1.52-.31c2.44.15,5.76,3,8.2,7.2C190.25,288.23,190.93,293,189.34,294.89Z" fill="#999"/>
<path d="M243.09,275.2l-34.45,35c2-2.46,3-6.43,2.89-11.3,17-13.48,21.32-23.41,21.32-23.41,7.09-22.71-7.72-30.71-7.72-30.71l2-.29a3.21,3.21,0,0,1,2.68.83c3.51,3.27,13.62,13.77,14.37,27.16A3.61,3.61,0,0,1,243.09,275.2Z" opacity="0.2"/>
<path d="M234.27,250.08,254.19,240a3.43,3.43,0,0,1,4.45,1.22l6.46,10.14a3.45,3.45,0,0,1-1,4.71l-1.46,1,19.86,17-10.87,8.09-18.93-16.61-8.55,4.36S242.79,260.14,234.27,250.08Z" fill="#2f2e41" data-secondary="true"/>
<path d="M247.67,268.12l6,6.58a3,3,0,0,0,3.57.67l4.26-2.12-8.77-7.7Z" fill="#0071f2" data-primary="true"/>
<path d="M381.85,137.13a42.07,42.07,0,1,1-.11-2.84C381.82,135.23,381.85,136.18,381.85,137.13Z" fill="#0071f2" data-primary="true"/>
<path d="M311,107l29,30.17V95.27A42.49,42.49,0,0,0,311,107Z" fill="#fff" opacity="0.3"/>
<path d="M381.74,134.29,340,137.13V95.27A41.84,41.84,0,0,1,381.74,134.29Z" opacity="0.2"/>
<path d="M381.85,137.13a41.54,41.54,0,0,1-1.19,9.9L340,137.13l41.75-2.84C381.82,135.23,381.85,136.18,381.85,137.13Z" fill="#2f2e41" data-secondary="true"/>
<circle cx="242.07" cy="151.32" r="30.51" fill="#3f4347"/>
<path d="M230,141.76v20.29a3.14,3.14,0,0,0,4.77,2.68l17.45-10.6a3.15,3.15,0,0,0-.11-5.44L234.68,139A3.14,3.14,0,0,0,230,141.76Z" fill="#0071f2" data-primary="true"/>
<circle cx="694.04" cy="310.96" r="28.38" fill="#3f4347"/>
<path d="M682,319.27c-.39-1-.07-1.54,1-1.73l1.59-.29a1.65,1.65,0,0,1,1.25.07,2.46,2.46,0,0,1,.73,1.09,8.77,8.77,0,0,0,2.67,3.42,6.89,6.89,0,0,0,4,1.39V311.71a20.43,20.43,0,0,1-7-3.73,8,8,0,0,1-2.38-6.24,7,7,0,0,1,2.89-5.7,11.18,11.18,0,0,1,6.5-2.48V290a1.33,1.33,0,0,1,1.5-1.5h.19c.93,0,1.39.5,1.39,1.5v3.61a12,12,0,0,1,5.88,1.78,8.21,8.21,0,0,1,3.61,4.53c.32.93,0,1.44-1,1.54l-1.3.09a2.76,2.76,0,0,1-1.49-.21,2.79,2.79,0,0,1-.87-1,5.72,5.72,0,0,0-4.87-3v10.5l1.88.77c1.19.48,2.14.88,2.84,1.2a20,20,0,0,1,2.36,1.3,9,9,0,0,1,2,1.66,7.51,7.51,0,0,1,1.73,4.89q0,4.68-2.94,7a12.7,12.7,0,0,1-7.75,2.39V331a1.32,1.32,0,0,1-1.49,1.49h-.24a1.32,1.32,0,0,1-1.5-1.49v-4.14a12.81,12.81,0,0,1-6.93-2.1A10.77,10.77,0,0,1,682,319.27Zm11.17-12.56v-9.49a5.63,5.63,0,0,0-3.44,1.27,3.89,3.89,0,0,0-1.42,3.16,3.83,3.83,0,0,0,1.3,3.08A12.12,12.12,0,0,0,693.14,306.71Zm3.08,16.51a7.79,7.79,0,0,0,4.46-1.46,4.47,4.47,0,0,0,1.85-3.79,3.94,3.94,0,0,0-.19-1.25,2.82,2.82,0,0,0-.65-1.06c-.31-.32-.59-.59-.84-.82a6.26,6.26,0,0,0-1.16-.72l-1.13-.55c-.24-.11-.66-.28-1.25-.51s-1-.37-1.09-.43Z" fill="#fff"/>
<circle cx="604.64" cy="437.26" r="28.38" fill="#3f4347"/>
<path d="M592.57,445.57c-.39-1-.07-1.54,1-1.73l1.59-.29a1.66,1.66,0,0,1,1.25.07,2.38,2.38,0,0,1,.72,1.09,8.78,8.78,0,0,0,2.68,3.41,6.82,6.82,0,0,0,4,1.4V438a20.43,20.43,0,0,1-7-3.73,8,8,0,0,1-2.38-6.24,7,7,0,0,1,2.89-5.71,11.25,11.25,0,0,1,6.5-2.48v-3.61a1.32,1.32,0,0,1,1.49-1.49h.2c.93,0,1.39.5,1.39,1.49v3.61a12.1,12.1,0,0,1,5.88,1.79,8.27,8.27,0,0,1,3.61,4.52c.32.93,0,1.45-1,1.54l-1.3.1a2.8,2.8,0,0,1-1.5-.22,2.83,2.83,0,0,1-.86-1,5.71,5.71,0,0,0-4.87-3V434l1.88.77c1.19.49,2.14.89,2.84,1.21a18.69,18.69,0,0,1,2.36,1.3,8.94,8.94,0,0,1,2,1.66,7.66,7.66,0,0,1,1.73,4.89q0,4.67-2.94,7a12.7,12.7,0,0,1-7.75,2.38v4.14a1.33,1.33,0,0,1-1.5,1.5h-.24a1.32,1.32,0,0,1-1.49-1.5v-4.14a12.72,12.72,0,0,1-6.93-2.09A10.71,10.71,0,0,1,592.57,445.57ZM603.74,433v-9.49a5.64,5.64,0,0,0-3.44,1.28,3.89,3.89,0,0,0-1.42,3.16,3.83,3.83,0,0,0,1.3,3.08A12.12,12.12,0,0,0,603.74,433Zm3.08,16.52a7.73,7.73,0,0,0,4.46-1.47,4.44,4.44,0,0,0,1.85-3.78,3.9,3.9,0,0,0-.19-1.25,2.87,2.87,0,0,0-.65-1.06c-.31-.32-.59-.59-.84-.82a6.26,6.26,0,0,0-1.16-.72c-.51-.26-.89-.44-1.13-.55s-.66-.28-1.25-.51l-1.09-.43Z" fill="#fff"/>
<circle cx="581.94" cy="142.09" r="17.74" fill="#3f4347"/>
<path d="M574.39,147.29q-.36-.9.6-1.08l1-.19a1,1,0,0,1,.78,0,1.53,1.53,0,0,1,.45.68,5.46,5.46,0,0,0,1.67,2.13,4.24,4.24,0,0,0,2.48.88v-7.2a12.89,12.89,0,0,1-4.38-2.33,5,5,0,0,1-1.49-3.9,4.38,4.38,0,0,1,1.81-3.56,7,7,0,0,1,4.06-1.56V129a.83.83,0,0,1,.94-.94h.12c.58,0,.87.32.87.94v2.25a7.63,7.63,0,0,1,3.67,1.12,5.1,5.1,0,0,1,2.26,2.83q.3.87-.6,1l-.81.06a1.24,1.24,0,0,1-1.48-.78,3.58,3.58,0,0,0-3-1.9v6.57l1.17.48c.75.3,1.34.55,1.78.75a13.5,13.5,0,0,1,1.48.81,5.54,5.54,0,0,1,1.26,1,4.72,4.72,0,0,1,.77,1.31,4.62,4.62,0,0,1,.31,1.75,5.16,5.16,0,0,1-1.83,4.34,8,8,0,0,1-4.85,1.5v2.58a.83.83,0,0,1-.93.94h-.15a.83.83,0,0,1-.94-.94v-2.58a8.07,8.07,0,0,1-4.33-1.31A6.77,6.77,0,0,1,574.39,147.29Zm7-7.86V133.5a3.54,3.54,0,0,0-2.15.8,2.44,2.44,0,0,0-.89,2,2.37,2.37,0,0,0,.82,1.93A7.63,7.63,0,0,0,581.37,139.43Zm1.93,10.33a4.87,4.87,0,0,0,2.78-.92,2.76,2.76,0,0,0,1.16-2.36,2.52,2.52,0,0,0-.12-.79,1.75,1.75,0,0,0-.4-.66c-.19-.2-.37-.37-.53-.51a3.5,3.5,0,0,0-.72-.45l-.71-.35c-.15-.07-.41-.17-.78-.31a6,6,0,0,1-.68-.28Z" fill="#fff"/>
<path d="M353.47,322.32s-18.83,15.39-17.93,49.23c.54,20.55,8.67,40.15,22.1,55.72,11.18,13,29.26,30.79,56.12,48.89L432,586.94a1.64,1.64,0,0,0,1.7,1.39c7.07-.31,37.62-1.92,46.58-6.82a1.65,1.65,0,0,0,.85-1.56c-.77-11.22-8.44-114.08-33.27-147.29l-48.16-72.91a7.94,7.94,0,0,1-.81-7.16l4.85-12.91Z" fill="#2f2e41" data-secondary="true"/>
<path d="M340,360.85a43.06,43.06,0,0,0,27.34-12.57c1.1-1,2-2.2,3.17-3.26a30.7,30.7,0,0,1-2.08,4.13c-5.72,9.25-17.81,14.57-28.43,11.7Z" opacity="0.2"/>
<path d="M363.51,324.62l25.81-66.88a6.83,6.83,0,0,1,8.84-3.92l42.32,16.27a6.84,6.84,0,0,1,3.83,9.09L415.09,347a8.58,8.58,0,0,1-11.38,4.45L368,335.57A8.59,8.59,0,0,1,363.51,324.62Z" fill="#fff"/>
<path d="M425.91,272.58a3.61,3.61,0,0,1-1.32-.26l-19.16-7.89a3.48,3.48,0,0,1-1.89-1.88,3.53,3.53,0,0,1,0-2.67l1.21-2.91a.71.71,0,0,1,1.31.55l-1.2,2.91a2,2,0,0,0,0,1.57,2.05,2.05,0,0,0,1.12,1.12L425.13,271a2.06,2.06,0,0,0,2.63-1l1.75-3.58a.71.71,0,0,1,.95-.33.72.72,0,0,1,.33.95L429,270.63A3.47,3.47,0,0,1,425.91,272.58Z" fill="#2f2e41" data-secondary="true"/>
<g opacity="0.39">
<path d="M427.46,290.45a1.31,1.31,0,0,1-.58-.12L399.72,278.2a1.42,1.42,0,1,1,1.16-2.59L428,287.74a1.42,1.42,0,0,1,.71,1.87A1.4,1.4,0,0,1,427.46,290.45Z" fill="#0071f2" data-primary="true"/>
</g>
<g opacity="0.39">
<path d="M423,299.61a1.38,1.38,0,0,1-.56-.12L389.8,285.3a1.42,1.42,0,1,1,1.13-2.6l32.64,14.19a1.42,1.42,0,0,1-.57,2.72Z" fill="#0071f2" data-primary="true"/>
</g>
<g opacity="0.39">
<path d="M418.74,312.38a1.4,1.4,0,0,1-.56-.11l-32.64-14.2a1.42,1.42,0,0,1,1.13-2.6l32.64,14.19a1.42,1.42,0,0,1,.74,1.87A1.44,1.44,0,0,1,418.74,312.38Z" fill="#0071f2" data-primary="true"/>
</g>
<g opacity="0.39">
<path d="M407.39,332.25a1.38,1.38,0,0,1-.56-.12l-32.64-14.19a1.42,1.42,0,1,1,1.13-2.6L408,329.53a1.42,1.42,0,0,1-.57,2.72Z" fill="#0071f2" data-primary="true"/>
</g>
<path d="M446.42,605.42c-1.42-5.68-4.72-17.53-4.72-17.53a243.23,243.23,0,0,0,31.89-4v19a16.2,16.2,0,0,1-3.26,2.77,19.7,19.7,0,0,1-17.14,2.1Z" fill="#f9b499"/>
<path d="M522,658.21a6.29,6.29,0,0,1-4.89,4.25c-19,3.24-47.59-13.81-51.17-16a.24.24,0,0,0-.37.21v2.14a.73.73,0,0,1-1.11.63l-18.56-11.1a6.23,6.23,0,0,1-3-5.34V610.39c0-9.94,3.55-5,3.55-5s16.74,8.27,27.17-2.6c0,0,1.4-2.78,4,1.79a62.12,62.12,0,0,0,6.9,9.49c5.51,6.37,14.36,16,22.58,22.41a29.76,29.76,0,0,0,8.14,4.51c4,1.43,10.52,4.9,8.51,11.94Z" fill="#0071f2" data-primary="true"/>
<path d="M412.36,199.57l-2.13,16.32s-2.84,21.28,14.19,22.7c0,0,4.79,1,8.07-5a15.89,15.89,0,0,0,1.86-7.71v-6L440,206l-21.45-10.44-3.41,1v4.23Z" fill="#f9b499"/>
<ellipse cx="436.42" cy="191.9" rx="19.23" ry="28.38" transform="translate(-11.54 28.75) rotate(-3.72)" fill="#f9b499"/>
<path d="M435.77,171.89s-4.25,7.1-9.93,8.52c0,0,2.59,11.83-5.09,14.43l-5.58,1.71v4.23s-9.2-.5-6.36-10.44c0,0-6.76-4.66-.54-10.84,0,0-5.13-3.35-.88-9,0,0-1.42-24.13,27-17,0,0,9.94-8.52,19.87,5.67,0,0,12.77,0,11.35,8.52,0,0,0,7.09-11.35,5.67C454.22,173.31,450,183.25,435.77,171.89Z" fill="#2f2e41" data-secondary="true"/>
<path d="M434.35,219.9v6.83s-14.72-4.7-13.74-19.84C420.61,206.89,424.42,216.82,434.35,219.9Z" fill="#f7a48b"/>
<ellipse cx="417.33" cy="191.05" rx="4.26" ry="6.39" fill="#f9b499"/>
<path d="M359.14,288.26a317.33,317.33,0,0,1,30.18-30.52,316.16,316.16,0,0,1-30.18,30.52Z" opacity="0.2"/>
<path d="M316.57,310.25h-.11C289.51,306,272.17,281.82,272,281.57a.72.72,0,0,1,.17-1,.73.73,0,0,1,1,.17c.17.24,17.18,23.93,43.52,28.09a.72.72,0,0,1,.59.82A.7.7,0,0,1,316.57,310.25Z" fill="#2f2e41" data-secondary="true"/>
<rect x="149.83" y="663.6" width="549.18" height="4.26" fill="#3f4347"/>
<path d="M333.45,269.91l-19.72,24s-8.66,11.49,9.86,22.78c0,0,23.53,17.06,82.05,12,0,0,27.3,1.66,28.71-6.64,0,0,5.55-3.47,2.07-8.73,0,0,3.61-3.84-.65-6.67,0,0,2.88-3.83,0-5.2a3.93,3.93,0,0,0-4.17.69L423,309.54s-4.25,2.84-4.25-1.41c0,0,5.67-7.1,1.92-8.34,0,0-11.86,15.43-17.53,12.59l-52.51-17,8.51-7.09Z" fill="#f9b499"/>
<path d="M428.68,312.38a14.5,14.5,0,0,1,7.09-5.67,14.46,14.46,0,0,1-7.09,5.67Z" fill="#f7a48b"/>
<path d="M432.23,317.1a5.76,5.76,0,0,1,4.19-3.72,5.75,5.75,0,0,1-4.19,3.72Z" fill="#f7a48b"/>
<path d="M350.63,296.06a.7.7,0,0,1-.57-.29c-15.22-20.75-68.79-21.31-69.31-21.31a.71.71,0,0,1,0-1.42h0c2.18,0,54.81.57,70.45,21.89a.7.7,0,0,1-.57,1.13Z" fill="#2f2e41" data-secondary="true"/>
</svg>