 <!DOCTYPE svg PUBLIC "-//W3C//DTD SVG 1.1//EN" "http://www.w3.org/Graphics/SVG/1.1/DTD/svg11.dtd">
<svg id="f5194800-ac79-42da-a374-60fbb4ced789" data-name="Layer 1" xmlns="http://www.w3.org/2000/svg" width="865.76" height="682.89" viewBox="0 0 865.76 682.89">
<defs>
<style xmlns="http://www.w3.org/1999/xhtml">*, ::after, ::before { box-sizing: border-box; }
img, svg { vertical-align: middle; }
</style>
<style xmlns="http://www.w3.org/1999/xhtml">*, body, html { -webkit-font-smoothing: antialiased; }
img, svg { max-width: 100%; }
</style>
</defs>
<path d="M756.56,483.62l15,6.59s11.35-1.47,13.18-14.28l-23.07-12.09-5.86,9.52Z" fill="#f9b499"/>
<path d="M705.06,303,688,287.59S709.45,262,715.8,260.5c0,0,26.85-10,52.24,11.47L755.1,296.62s-4.39,18.31-7.08,21.49H713.11S708.47,310.05,705.06,303Z" fill="#0071f2" data-primary="true"/>
<ellipse cx="204.34" cy="219.65" rx="3.56" ry="5.88" fill="#f4a790"/>
<path d="M274.08,148.84H564.9a21.53,21.53,0,0,1,21.53,21.53v387.8a0,0,0,0,1,0,0H252.55a0,0,0,0,1,0,0V170.37A21.53,21.53,0,0,1,274.08,148.84Z" fill="#ccc"/>
<path d="M252.55,220.52H586.43V167.34A19.44,19.44,0,0,0,567,147.9H272.43a19.88,19.88,0,0,0-19.88,19.88Z" fill="#2f2e41" data-secondary="true"/>
<circle cx="312.82" cy="180.98" r="16.21" fill="#ccc"/>
<circle cx="425.16" cy="181.54" r="16.21" fill="#ccc"/>
<circle cx="535.81" cy="180.98" r="16.21" fill="#ccc"/>
<rect x="303.58" y="127.39" width="18.44" height="61.48" rx="8.46" fill="#3f3d56"/>
<rect x="415.36" y="126.83" width="18.44" height="61.48" rx="8.46" fill="#3f3d56"/>
<rect x="526.02" y="126.83" width="18.44" height="61.48" rx="8.46" fill="#3f3d56"/>
<g opacity="0.2">
<rect x="303.58" y="127.39" width="18.44" height="61.48" rx="8.46"/>
<rect x="415.36" y="126.83" width="18.44" height="61.48" rx="8.46"/>
<rect x="526.02" y="126.83" width="18.44" height="61.48" rx="8.46"/>
</g>
<rect x="303.98" y="274.17" width="65.18" height="63.71" opacity="0.2"/>
<rect x="389.91" y="274.17" width="65.18" height="63.71" opacity="0.2"/>
<rect x="474.86" y="274.17" width="65.18" height="63.71" opacity="0.2"/>
<rect x="303.98" y="353.99" width="65.18" height="63.71" fill="#808285"/>
<rect x="389.91" y="353.99" width="65.18" height="63.71" opacity="0.2"/>
<rect x="474.86" y="353.99" width="65.18" height="63.71" opacity="0.2"/>
<g opacity="0.2">
<rect x="303.98" y="436.01" width="65.18" height="63.71"/>
<rect x="389.91" y="436.01" width="65.18" height="63.71"/>
</g>
<path d="M168.49,484.59l47.73-37.47a22.84,22.84,0,0,0,8.17-23l-18.33-81.2-21.3,29.82-4.06,31.77L188,428,135.3,468.48Z" fill="#2f2e41" data-secondary="true"/>
<path d="M168.49,484.59l47.73-37.47a22.84,22.84,0,0,0,8.17-23l-18.33-81.2-21.3,29.82-4.06,31.77L188,428,135.3,468.48Z" opacity="0.2"/>
<path d="M139.44,516.57l-.73,19.77s12.94,2.44,19.29-4.88V516.81Z" fill="#f9b499"/>
<path d="M134.81,534.88l-5.62,17.33,64.69-.49-35.39-21.48S152.63,539.76,134.81,534.88Z" fill="#3f3d56"/>
<path d="M134.81,534.88l-5.62,17.33,64.69-.49-35.39-21.48S152.63,539.76,134.81,534.88Z" fill="#0071f2" data-primary="true"/>
<polygon points="193.92 557.33 129.1 558.04 129.1 552.18 193.88 551.72 193.92 557.33" fill="#2f2e41" data-secondary="true"/>
<polygon points="193.92 557.33 129.1 558.04 129.1 552.18 193.88 551.72 193.92 557.33" opacity="0.4"/>
<path d="M136,468l-10,6.84s5.61,11.71,9.76,12.2Z" fill="#f9b499"/>
<path d="M124.8,471.9,108.44,479l26.12,32.71L135.78,487S130.41,486.06,124.8,471.9Z" fill="#3f3d56"/>
<path d="M124.8,471.9,108.44,479l26.12,32.71L135.78,487S130.41,486.06,124.8,471.9Z" fill="#0071f2" data-primary="true"/>
<polygon points="108.44 478.98 103.56 482.88 139.44 527.31 139.44 517.67 134.19 517.67 134.44 511.57 108.44 478.98" fill="#2f2e41" data-secondary="true"/>
<polygon points="108.44 478.98 103.56 482.88 139.44 527.31 139.44 517.67 134.19 517.67 134.44 511.57 108.44 478.98" opacity="0.4"/>
<path d="M238.77,295.23l-20.23-33.8c-4.53-10.65-16-10.92-16-10.92l-48-1.38a15.82,15.82,0,0,0-12.29,5.31L112.2,288.37a26.09,26.09,0,0,0-6.57,17.9l1.1,50.19h25l1.06-49.25,9.58-9-.76,42.64,64.42,2.13,3.16-40,9.86,13.63a15,15,0,0,0,14.39,6.11l.24,0,51.65-7.18.26-26.09Z" fill="#0071f2" data-primary="true"/>
<polygon points="142.4 298.16 155.98 284.32 142.13 319.45 142.4 298.16" opacity="0.2"/>
<polygon points="209.22 302.95 210.13 282.69 214.39 310.42 209.22 302.95" opacity="0.2"/>
<path d="M173.71,233.36l-.42,16.3-6.74-.19s.65,10.26,14.81,11.43a15,15,0,0,0,10.94-3.38c2.07-1.76,3.77-4,3.47-7.2l-4.73-.14-.06-11.3a16,16,0,0,0,1.75-.58,17.56,17.56,0,0,0,11.07-16.42l-.08-20.83s-16.3,4-28.77-.28c0,0,.18,13.18-3.2,14.78,0,0-3.38-4.45-6.95-3.91,0,0-4.11.23-5,5.66a7.14,7.14,0,0,0,8.52,8.09l.2,0S170.5,231.94,173.71,233.36Z" fill="#f9b499"/>
<path d="M164.8,211.64S149,180.83,186.53,186.53c0,0,4.94-12.36,19.42-2.05a11.85,11.85,0,0,1,4.18,5.09c1.2,3,1.37,7.14-4.33,10.65a11.52,11.52,0,0,1-3.87,1.51c-4.43.9-16,2.62-27-1,0,0,.51,12.71-3.2,14.78C171.75,215.55,168.51,211.18,164.8,211.64Z" fill="#2f2e41" data-secondary="true"/>
<path d="M191,238.88s-11.4,1.07-15.13-3.74c0,0,4.24,10.62,15.1,9.73Z" fill="#f4a790"/>
<ellipse cx="712.17" cy="227.34" rx="15.51" ry="20.95" fill="#f9b499"/>
<path d="M692.3,219c.64-6.3,4.65-24.74,29.62-22.88,0,0,8,1.92,11.2,4.48,0,0,3.06-16.42,16.8-16.11a17.79,17.79,0,0,1,16,10.71c2,4.84,2.61,12-4.91,18.54,0,0-6.41,5.77-18,1.58a27.27,27.27,0,0,1-15.14,24.7L726.61,232s-11.41-9.28-12.37-15.35l-20.11,4.08A1.54,1.54,0,0,1,692.3,219Z" fill="#2f2e41" data-secondary="true"/>
<path d="M726.78,233.15l4.64,24.66s3.66-.24,5.86.73c0,0-10.5,18.8-23.44,12.45,0,0-4.88-4.39,2-10.49l-2.44-12.7Z" fill="#f9b499"/>
<path d="M723.37,241.7s3.66,7.32-8.3,14.65l-1.71-7.94S718.24,248.78,723.37,241.7Z" fill="#f4a790"/>
<path d="M703.35,271s-6.35,16.85,1.71,32L688,287.59Z" opacity="0.2"/>
<path d="M741.19,286.13s6.59,15.38,11.47,20l2.44-9.52Z" opacity="0.2"/>
<path d="M766.82,274.65l8.92,8.1a78.43,78.43,0,0,1,12.6,14.67c7.36,11.1,20.41,31.51,29.94,50.38a6.7,6.7,0,0,0,3.78,3.29c5.24,1.83,16.8,7.17,16,18.52,0,0,0,1.22-1.59.49,0,0,1.1,3.91-2.44,3.42,0,0,.12,2.93-4.39,1.59,0,0-3.18,3.9-5-.13,0,0-1.83-9.64-7.2-11l0,1.62a2.92,2.92,0,0,1-3,2.83h0a2.9,2.9,0,0,1-2.81-2.51l-1.49-10.73-32.49-41a49.08,49.08,0,0,0-12.19-11l-10.37-6.59Z" fill="#f9b499"/>
<path d="M713.11,318.11s-21,68.1-24.65,102.89c0,0-4.76,28.56,9.88,36.25l50.53,29.66,18.31-28.56-31.12-20.14L731.3,317.74Z" fill="#2f2e41" data-secondary="true"/>
<path d="M713.11,318.11s-21,68.1-24.65,102.89c0,0-4.76,28.56,9.88,36.25l50.53,29.66,18.31-28.56-31.12-20.14L731.3,317.74Z" opacity="0.2"/>
<path d="M733.13,515.11l2.2,16.84s8.42,8.42,20.87,2.93l-4.4-26.37Z" fill="#f9b499"/>
<polygon points="756.2 534.88 763.16 550.99 698.34 550.99 734.96 529.75 756.2 534.88" fill="#0071f2" data-primary="true"/>
<rect x="698.34" y="550.99" width="65.18" height="6.22" fill="#2f2e41" data-secondary="true"/>
<path d="M764.62,530.85l2.56-42.47,4.4,1.83s12.81-2.2,13.55-16.85l17.57,6.23Z" fill="#0071f2" data-primary="true"/>
<polygon points="807.46 482.88 802.7 479.59 764.62 530.85 770.11 535.61 807.46 482.88" fill="#2f2e41" data-secondary="true"/>
<path d="M148.39,141.89H35.16a2.91,2.91,0,0,0-2.91,2.91v33.43a2.91,2.91,0,0,0,2.91,2.91h86.7l16.79,13.7v-13.7h9.74a2.91,2.91,0,0,0,2.91-2.91V144.8A2.92,2.92,0,0,0,148.39,141.89Z" fill="#2f2e41" data-secondary="true"/>
<rect x="55.16" y="154.62" width="79.42" height="4.07" rx="1.87" fill="#fff"/>
<rect x="54.65" y="163.78" width="24.95" height="4.07" rx="1.87" fill="#fff"/>
<polygon points="551.83 284.93 578.79 226.22 637.49 252.58 611.73 311.88 551.83 284.93" fill="#808285"/>
<rect x="550.41" y="340.44" width="31.12" height="9.52" fill="#2f2e41" data-secondary="true"/>
<rect x="550.41" y="340.44" width="31.12" height="9.52" opacity="0.2"/>
<rect x="536.64" y="323.15" width="58.59" height="17.21" rx="7.9" fill="#2f2e41" data-secondary="true"/>
<polygon points="474.61 383.65 483.04 392.81 499.88 374.5 491.09 364.98 474.61 383.65" fill="#2f2e41" data-secondary="true"/>
<polygon points="474.61 383.65 483.04 392.81 499.88 374.5 491.09 364.98 474.61 383.65" opacity="0.2"/>
<rect x="456.37" y="367.4" width="47" height="11.35" rx="5.21" transform="translate(-123.26 448.6) rotate(-45)" fill="#2f2e41" data-secondary="true"/>
<path d="M307.24,291.44l8.23-3.53A2.92,2.92,0,0,0,317,284h0a2.92,2.92,0,0,0-3.58-1.54l-15.18,5.06s-4-9.62-12.59,1.86l-.22,23.22,1.84-.3a13.73,13.73,0,0,1,4.95.08C298.75,313.7,317,315.49,307.24,291.44Z" fill="#f9b499"/>
<polygon points="141.64 340.8 206.06 342.93 184.76 372.75 166.13 517.56 134.19 517.67 141.64 340.8" fill="#2f2e41" data-secondary="true"/>
<polygon points="84.57 367.28 84.57 431.37 152.49 431.37 152.49 367.53 84.57 367.28" fill="#808285"/>
<path d="M108.32,356.3s-12,18.64,7.4,23c0,0,13.75,3.26,16.05-11.81h4.08a16.68,16.68,0,0,0-4.09-11Z" fill="#f9b499"/>
<circle cx="726.61" cy="225.26" r="6.72" fill="#f9b499"/>
<path d="M727.27,517.67l-13.91-74s-4.67-17.35-2.55-41.22c.23-2.62.39-5.26.46-7.89l1.84-76.48H748s15.32,4.17,12.37,43.51a155.83,155.83,0,0,1-2.71,19.23c-2.44,12.09-8,41.43-6.61,48.94l9.52,87.15Z" fill="#2f2e41" data-secondary="true"/>
<circle cx="565.55" cy="450.17" r="103.87" fill="#2f2e41" data-secondary="true"/>
<circle cx="565.55" cy="450.17" r="98.38" fill="#fff" opacity="0.2"/>
<circle cx="565.55" cy="450.17" r="88.61" fill="#2f2e41" data-secondary="true"/>
<path d="M570.55,440.18V404.34a4.94,4.94,0,0,0-4.94-4.94h0a5,5,0,0,0-5,4.94v36.29a11.9,11.9,0,1,0,9.89-.45Z" fill="#fff"/>
<rect x="563.59" y="373.03" width="4.76" height="10.25" rx="2.18" fill="#fff"/>
<rect x="615.04" y="395.12" width="4.76" height="10.25" rx="2.18" transform="translate(463.86 -319.35) rotate(45)" fill="#fff"/>
<rect x="636.83" y="446.82" width="4.76" height="10.25" rx="2.18" transform="translate(1091.15 -187.27) rotate(90)" fill="#fff"/>
<rect x="490.36" y="446.82" width="4.76" height="10.25" rx="2.18" transform="translate(944.68 -40.8) rotate(90)" fill="#fff"/>
<rect x="615.84" y="498.79" width="4.76" height="10.25" rx="2.18" transform="translate(1414.29 454.78) rotate(137.28)" fill="#fff"/>
<rect x="512.58" y="394.79" width="4.76" height="10.25" rx="2.18" transform="translate(1164.61 344.43) rotate(137.28)" fill="#fff"/>
<rect x="511.36" y="497.93" width="4.76" height="10.25" rx="2.18" transform="translate(492.63 1221.78) rotate(-132.72)" fill="#fff"/>
<rect x="563.59" y="519.87" width="4.76" height="10.25" rx="2.18" fill="#fff"/>
<path d="M692.94,292.11l-9.06,8.81-47.39-17.09-10.16-13.64a2.21,2.21,0,0,0-3-.53h0a2.21,2.21,0,0,0-.63,3.09l1.63,2.4a6.55,6.55,0,0,1,.59,6.28l-5.29,12.2,12.42,0,51.79,28s7,2.85,12.42-1.55l12.3-10.4-3.85-7.32Z" fill="#f9b499"/>
</svg>