 <!DOCTYPE svg PUBLIC "-//W3C//DTD SVG 1.1//EN" "http://www.w3.org/Graphics/SVG/1.1/DTD/svg11.dtd">
<svg id="a0e0cd86-b941-48b5-9b90-57a3fa3d34f6" data-name="ad8414ee-ec21-47ae-92bf-08cda0c39f49" xmlns="http://www.w3.org/2000/svg" width="865.76" height="682.89" viewBox="0 0 865.76 682.89">
<defs>
<style xmlns="http://www.w3.org/1999/xhtml">*, ::after, ::before { box-sizing: border-box; }
img, svg { vertical-align: middle; }
</style>
<style xmlns="http://www.w3.org/1999/xhtml">*, body, html { -webkit-font-smoothing: antialiased; }
img, svg { max-width: 100%; }
</style>
</defs>
<path d="M700.55,502.58l15.8-.34,8-.13c2.68,0,5.38,0,8.06-.07H733v.54l.07,13.47v.6h-.6l-15.94-.08c-5.32,0-10.63-.13-15.94-.19h-.33V516c0-2.28.1-4.56.15-6.81Zm0,0,.17,6.8c0,2.24.13,4.47.16,6.67l-.33-.34c5.31-.06,10.62-.18,15.94-.19l15.94-.07-.6.6.06-13.47.54.53c-2.62,0-5.25,0-7.88-.06l-7.92-.13Z" fill="#ebebeb"/>
<rect x="511.08" y="327.06" width="65.31" height="250.92" fill="#c7c7c7"/>
<rect x="391.11" y="327.45" width="120.21" height="250.92" fill="#ebebeb"/>
<rect x="398.37" y="546.03" width="103.68" height="23.95" fill="#dbdbdb"/>
<rect x="438.68" y="549.99" width="59.02" height="2.02" fill="#ebebeb"/>
<rect x="438.68" y="553.49" width="59.02" height="2.02" fill="#ebebeb"/>
<rect x="438.68" y="557" width="59.02" height="2.02" fill="#ebebeb"/>
<rect x="438.68" y="560.5" width="59.02" height="2.02" fill="#ebebeb"/>
<rect x="438.68" y="564" width="59.02" height="2.02" fill="#ebebeb"/>
<path d="M428,552a2,2,0,1,0,2-2A2,2,0,0,0,428,552Z" fill="#fff"/>
<path d="M421.31,552a2,2,0,1,0,0-.31Z" fill="#fff"/>
<path d="M414.73,552a2,2,0,1,0,0-.31A1.61,1.61,0,0,0,414.73,552Z" fill="#fff"/>
<path d="M408.1,552a2,2,0,1,0,2-2A2,2,0,0,0,408.1,552Z" fill="#fff"/>
<path d="M401.49,552a2,2,0,1,0,2-2A2,2,0,0,0,401.49,552Z" fill="#fff"/>
<path d="M428,558a2,2,0,1,0,2-2h0A2,2,0,0,0,428,558Z" fill="#fff"/>
<path d="M421.31,558a2,2,0,1,0,2-2h0A2,2,0,0,0,421.31,558Z" fill="#fff"/>
<path d="M414.73,558a2,2,0,1,0,2-2h0A2,2,0,0,0,414.73,558Z" fill="#fff"/>
<path d="M408.1,558a2,2,0,1,0,2-2h0A2,2,0,0,0,408.1,558Z" fill="#fff"/>
<path d="M401.49,558a2,2,0,1,0,2-2h0A2,2,0,0,0,401.49,558Z" fill="#fff"/>
<circle cx="429.92" cy="564.02" r="2" fill="#fff"/>
<circle cx="423.31" cy="564.02" r="2" fill="#fff"/>
<path d="M414.73,564a2,2,0,1,0,2-2h0A2,2,0,0,0,414.73,564Z" fill="#fff"/>
<circle cx="410.11" cy="564.02" r="2" fill="#fff"/>
<circle cx="403.5" cy="564.02" r="2" fill="#fff"/>
<rect x="434.58" y="549.99" width="1.16" height="16.04" fill="#c7c7c7"/>
<rect x="398.37" y="517.17" width="103.68" height="23.95" fill="#dbdbdb"/>
<rect x="438.68" y="521.13" width="59.02" height="2.02" fill="#ebebeb"/>
<rect x="438.68" y="524.63" width="59.02" height="2.02" fill="#ebebeb"/>
<rect x="438.68" y="528.14" width="59.02" height="2.02" fill="#ebebeb"/>
<rect x="438.68" y="531.64" width="59.02" height="2.02" fill="#ebebeb"/>
<rect x="438.68" y="535.15" width="59.02" height="2.02" fill="#ebebeb"/>
<path d="M428,523.14a2,2,0,1,0,2-2A2,2,0,0,0,428,523.14Z" fill="#fff"/>
<path d="M421.31,523.14a2,2,0,1,0,2-2h0A2,2,0,0,0,421.31,523.14Z" fill="#fff"/>
<path d="M414.73,523.14a2,2,0,1,0,2-2h0A2,2,0,0,0,414.73,523.14Z" fill="#fff"/>
<path d="M408.1,523.14a2,2,0,1,0,2-2A2,2,0,0,0,408.1,523.14Z" fill="#fff"/>
<path d="M401.49,523.14a2,2,0,1,0,2-2A2,2,0,0,0,401.49,523.14Z" fill="#fff"/>
<path d="M428,529.15a2,2,0,1,0,2-2A2,2,0,0,0,428,529.15Z" fill="#fff"/>
<path d="M421.31,529.15a2,2,0,1,0,0-.31Z" fill="#fff"/>
<path d="M414.73,529.15a2,2,0,1,0,0-.31A1.61,1.61,0,0,0,414.73,529.15Z" fill="#fff"/>
<path d="M408.1,529.15a2,2,0,1,0,2-2A2,2,0,0,0,408.1,529.15Z" fill="#fff"/>
<path d="M401.49,529.15a2,2,0,1,0,2-2A2,2,0,0,0,401.49,529.15Z" fill="#fff"/>
<circle cx="429.92" cy="535.16" r="2" fill="#fff"/>
<circle cx="423.31" cy="535.16" r="2" fill="#fff"/>
<path d="M414.73,535.16a2,2,0,1,0,2-2h0A2,2,0,0,0,414.73,535.16Z" fill="#fff"/>
<circle cx="410.11" cy="535.16" r="2" fill="#fff"/>
<circle cx="403.5" cy="535.16" r="2" fill="#fff"/>
<rect x="434.58" y="521.13" width="1.16" height="16.04" fill="#c7c7c7"/>
<rect x="398.37" y="488.32" width="103.68" height="23.95" fill="#dbdbdb"/>
<rect x="438.68" y="492.27" width="59.02" height="2.02" fill="#ebebeb"/>
<rect x="438.68" y="495.78" width="59.02" height="2.02" fill="#ebebeb"/>
<rect x="438.68" y="499.28" width="59.02" height="2.02" fill="#ebebeb"/>
<rect x="438.68" y="502.78" width="59.02" height="2.02" fill="#ebebeb"/>
<rect x="438.68" y="506.29" width="59.02" height="2.02" fill="#ebebeb"/>
<path d="M428,494.33a2,2,0,1,0,2-2h0A2,2,0,0,0,428,494.33Z" fill="#fff"/>
<path d="M421.31,494.33a2,2,0,1,0,2-2h0A2,2,0,0,0,421.31,494.33Z" fill="#fff"/>
<path d="M414.73,494.33a2,2,0,1,0,2-2h0A2,2,0,0,0,414.73,494.33Z" fill="#fff"/>
<path d="M408.1,494.33a2,2,0,1,0,2-2h0A2,2,0,0,0,408.1,494.33Z" fill="#fff"/>
<path d="M401.49,494.33a2,2,0,1,0,2-2h0A2,2,0,0,0,401.49,494.33Z" fill="#fff"/>
<path d="M428,500.35a2,2,0,1,0,2-2A2,2,0,0,0,428,500.35Z" fill="#fff"/>
<path d="M421.31,500.35a2,2,0,1,0,0-.31Z" fill="#fff"/>
<path d="M414.73,500.35a2,2,0,1,0,0-.31A1.61,1.61,0,0,0,414.73,500.35Z" fill="#fff"/>
<path d="M408.1,500.35a2,2,0,1,0,2-2A2,2,0,0,0,408.1,500.35Z" fill="#fff"/>
<path d="M401.49,500.35a2,2,0,1,0,2-2A2,2,0,0,0,401.49,500.35Z" fill="#fff"/>
<path d="M428,506.3a2,2,0,0,0,4,.31,1.61,1.61,0,0,0,0-.31,2,2,0,1,0-4,0Z" fill="#fff"/>
<path d="M421.31,506.3a2,2,0,1,0,2-2h0A2,2,0,0,0,421.31,506.3Z" fill="#fff"/>
<path d="M414.73,506.3a2,2,0,1,0,2-2h0A2,2,0,0,0,414.73,506.3Z" fill="#fff"/>
<path d="M408.1,506.3a2,2,0,1,0,2-2h0A2,2,0,0,0,408.1,506.3Z" fill="#fff"/>
<path d="M401.49,506.3a2,2,0,0,0,4,.31v-.31a2,2,0,1,0-4,0Z" fill="#fff"/>
<rect x="434.58" y="492.27" width="1.16" height="16.04" fill="#c7c7c7"/>
<rect x="398.37" y="459.47" width="103.68" height="23.95" fill="#dbdbdb"/>
<rect x="438.68" y="463.42" width="59.02" height="2.02" fill="#ebebeb"/>
<rect x="438.68" y="466.92" width="59.02" height="2.02" fill="#ebebeb"/>
<rect x="438.68" y="470.42" width="59.02" height="2.02" fill="#ebebeb"/>
<rect x="438.68" y="473.93" width="59.02" height="2.02" fill="#ebebeb"/>
<rect x="438.68" y="477.43" width="59.02" height="2.02" fill="#ebebeb"/>
<path d="M428,465.44a2,2,0,1,0,2-2h0A2,2,0,0,0,428,465.44Z" fill="#fff"/>
<path d="M421.31,465.44a2,2,0,1,0,2-2h0A2,2,0,0,0,421.31,465.44Z" fill="#fff"/>
<path d="M414.73,465.44a2,2,0,1,0,2-2h0A2,2,0,0,0,414.73,465.44Z" fill="#fff"/>
<path d="M408.1,465.44a2,2,0,1,0,2-2h0A2,2,0,0,0,408.1,465.44Z" fill="#fff"/>
<path d="M401.49,465.44a2,2,0,1,0,2-2h0A2,2,0,0,0,401.49,465.44Z" fill="#fff"/>
<circle cx="429.92" cy="471.43" r="2" fill="#fff"/>
<circle cx="423.31" cy="471.43" r="2" fill="#fff"/>
<path d="M414.73,471.46a2,2,0,1,0,0-.31A1.61,1.61,0,0,0,414.73,471.46Z" fill="#fff"/>
<circle cx="410.11" cy="471.43" r="2" fill="#fff"/>
<circle cx="403.5" cy="471.43" r="2" fill="#fff"/>
<path d="M428,477.48a2,2,0,0,0,4,.31,1.61,1.61,0,0,0,0-.31,2,2,0,0,0-4,0Z" fill="#fff"/>
<path d="M421.31,477.48a2,2,0,1,0,2-2h0A2,2,0,0,0,421.31,477.48Z" fill="#fff"/>
<path d="M414.73,477.48a2,2,0,1,0,2-2h0A2,2,0,0,0,414.73,477.48Z" fill="#fff"/>
<path d="M408.1,477.48a2,2,0,1,0,2-2h0A2,2,0,0,0,408.1,477.48Z" fill="#fff"/>
<path d="M401.49,477.48a2,2,0,0,0,4,.31v-.31a2,2,0,0,0-4,0Z" fill="#fff"/>
<rect x="434.58" y="463.42" width="1.16" height="16.04" fill="#c7c7c7"/>
<rect x="398.37" y="430.61" width="103.68" height="23.95" fill="#dbdbdb"/>
<rect x="438.68" y="434.56" width="59.02" height="2.02" fill="#ebebeb"/>
<rect x="438.68" y="438.06" width="59.02" height="2.02" fill="#ebebeb"/>
<rect x="438.68" y="441.56" width="59.02" height="2.02" fill="#ebebeb"/>
<rect x="438.68" y="445.07" width="59.02" height="2.02" fill="#ebebeb"/>
<rect x="438.68" y="448.57" width="59.02" height="2.02" fill="#ebebeb"/>
<path d="M428,436.54a2,2,0,0,0,4,.31,1.61,1.61,0,0,0,0-.31,2,2,0,1,0-4,0Z" fill="#fff"/>
<path d="M421.31,436.54a2,2,0,1,0,2-2h0A2,2,0,0,0,421.31,436.54Z" fill="#fff"/>
<path d="M414.73,436.54a2,2,0,1,0,2-2h0A2,2,0,0,0,414.73,436.54Z" fill="#fff"/>
<path d="M408.1,436.54a2,2,0,1,0,2-2h0A2,2,0,0,0,408.1,436.54Z" fill="#fff"/>
<path d="M401.49,436.54a2,2,0,0,0,4,.31v-.31a2,2,0,1,0-4,0Z" fill="#fff"/>
<path d="M428,442.56a2,2,0,1,0,2-2A2,2,0,0,0,428,442.56Z" fill="#fff"/>
<path d="M421.31,442.56a2,2,0,1,0,0-.31Z" fill="#fff"/>
<path d="M414.73,442.56a2,2,0,1,0,0-.31A1.61,1.61,0,0,0,414.73,442.56Z" fill="#fff"/>
<path d="M408.1,442.56a2,2,0,1,0,2-2A2,2,0,0,0,408.1,442.56Z" fill="#fff"/>
<path d="M401.49,442.56a2,2,0,1,0,2-2A2,2,0,0,0,401.49,442.56Z" fill="#fff"/>
<circle cx="429.92" cy="448.58" r="2" fill="#fff"/>
<circle cx="423.31" cy="448.58" r="2" fill="#fff"/>
<path d="M414.73,448.58a2,2,0,1,0,2-2h0A2,2,0,0,0,414.73,448.58Z" fill="#fff"/>
<circle cx="410.11" cy="448.58" r="2" fill="#fff"/>
<circle cx="403.5" cy="448.58" r="2" fill="#fff"/>
<rect x="434.58" y="434.56" width="1.16" height="16.04" fill="#c7c7c7"/>
<rect x="398.37" y="401.75" width="103.68" height="23.95" fill="#dbdbdb"/>
<rect x="438.68" y="405.7" width="59.02" height="2.02" fill="#ebebeb"/>
<rect x="438.68" y="409.2" width="59.02" height="2.02" fill="#ebebeb"/>
<rect x="438.68" y="412.71" width="59.02" height="2.02" fill="#ebebeb"/>
<rect x="438.68" y="416.21" width="59.02" height="2.02" fill="#ebebeb"/>
<rect x="438.68" y="419.71" width="59.02" height="2.02" fill="#ebebeb"/>
<circle cx="429.92" cy="407.7" r="2" fill="#fff"/>
<circle cx="423.31" cy="407.7" r="2" fill="#fff"/>
<path d="M414.73,407.65a2,2,0,1,0,2-2h0A2,2,0,0,0,414.73,407.65Z" fill="#fff"/>
<circle cx="410.11" cy="407.7" r="2" fill="#fff"/>
<circle cx="403.5" cy="407.7" r="2" fill="#fff"/>
<path d="M428,413.67a2,2,0,1,0,2-2A2,2,0,0,0,428,413.67Z" fill="#fff"/>
<path d="M421.31,413.67a2,2,0,1,0,0-.31Z" fill="#fff"/>
<path d="M414.73,413.67a2,2,0,1,0,0-.31A1.61,1.61,0,0,0,414.73,413.67Z" fill="#fff"/>
<path d="M408.1,413.67a2,2,0,1,0,2-2A2,2,0,0,0,408.1,413.67Z" fill="#fff"/>
<path d="M401.49,413.67a2,2,0,1,0,2-2A2,2,0,0,0,401.49,413.67Z" fill="#fff"/>
<path d="M428,419.69a2,2,0,0,0,4,.31,1.61,1.61,0,0,0,0-.31,2,2,0,0,0-4,0Z" fill="#fff"/>
<path d="M421.31,419.69a2,2,0,1,0,2-2h0A2,2,0,0,0,421.31,419.69Z" fill="#fff"/>
<path d="M414.73,419.69a2,2,0,1,0,2-2h0A2,2,0,0,0,414.73,419.69Z" fill="#fff"/>
<path d="M408.1,419.69a2,2,0,1,0,2-2h0A2,2,0,0,0,408.1,419.69Z" fill="#fff"/>
<path d="M401.49,419.69a2,2,0,0,0,4,.31v-.31a2,2,0,0,0-4,0Z" fill="#fff"/>
<rect x="434.58" y="405.7" width="1.16" height="16.04" fill="#c7c7c7"/>
<rect x="398.37" y="372.89" width="103.68" height="23.95" fill="#dbdbdb"/>
<rect x="438.68" y="376.84" width="59.02" height="2.02" fill="#ebebeb"/>
<rect x="438.68" y="380.34" width="59.02" height="2.02" fill="#ebebeb"/>
<rect x="438.68" y="383.85" width="59.02" height="2.02" fill="#ebebeb"/>
<rect x="438.68" y="387.35" width="59.02" height="2.02" fill="#ebebeb"/>
<rect x="438.68" y="390.85" width="59.02" height="2.02" fill="#ebebeb"/>
<circle cx="429.92" cy="378.84" r="2" fill="#fff"/>
<circle cx="423.31" cy="378.84" r="2" fill="#fff"/>
<path d="M414.73,378.84a2,2,0,1,0,2-2h0A2,2,0,0,0,414.73,378.84Z" fill="#fff"/>
<circle cx="410.11" cy="378.84" r="2" fill="#fff"/>
<circle cx="403.5" cy="378.84" r="2" fill="#fff"/>
<circle cx="429.92" cy="384.86" r="2" fill="#fff"/>
<circle cx="423.31" cy="384.86" r="2" fill="#fff"/>
<path d="M414.73,384.86a2,2,0,1,0,0-.31A1.61,1.61,0,0,0,414.73,384.86Z" fill="#fff"/>
<circle cx="410.11" cy="384.86" r="2" fill="#fff"/>
<circle cx="403.5" cy="384.86" r="2" fill="#fff"/>
<path d="M428,390.87a2,2,0,0,0,4,.31,1.61,1.61,0,0,0,0-.31,2,2,0,0,0-4,0Z" fill="#fff"/>
<path d="M421.31,390.87a2,2,0,1,0,2-2h0A2,2,0,0,0,421.31,390.87Z" fill="#fff"/>
<path d="M414.73,390.87a2,2,0,1,0,2-2h0A2,2,0,0,0,414.73,390.87Z" fill="#fff"/>
<path d="M408.1,390.87a2,2,0,1,0,2-2h0A2,2,0,0,0,408.1,390.87Z" fill="#fff"/>
<path d="M401.49,390.87a2,2,0,0,0,4,.31v-.31a2,2,0,0,0-4,0Z" fill="#fff"/>
<rect x="434.58" y="376.84" width="1.16" height="16.04" fill="#c7c7c7"/>
<rect x="398.37" y="344.02" width="103.68" height="23.95" fill="#dbdbdb"/>
<rect x="438.68" y="347.97" width="59.02" height="2.02" fill="#ebebeb"/>
<rect x="438.68" y="351.47" width="59.02" height="2.02" fill="#ebebeb"/>
<rect x="438.68" y="354.98" width="59.02" height="2.02" fill="#ebebeb"/>
<rect x="438.68" y="358.48" width="59.02" height="2.02" fill="#ebebeb"/>
<rect x="438.68" y="361.98" width="59.02" height="2.02" fill="#ebebeb"/>
<path d="M428,350a2,2,0,0,0,4,.31,1.61,1.61,0,0,0,0-.31,2,2,0,0,0-4,0Z" fill="#fff"/>
<path d="M421.31,350a2,2,0,1,0,2-2h0A2,2,0,0,0,421.31,350Z" fill="#fff"/>
<path d="M414.73,350a2,2,0,1,0,2-2h0A2,2,0,0,0,414.73,350Z" fill="#fff"/>
<path d="M408.1,350a2,2,0,1,0,2-2h0A2,2,0,0,0,408.1,350Z" fill="#fff"/>
<path d="M401.49,350a2,2,0,0,0,4,.31V350a2,2,0,0,0-4,0Z" fill="#fff"/>
<circle cx="429.92" cy="356" r="2" fill="#fff"/>
<circle cx="423.31" cy="356" r="2" fill="#fff"/>
<path d="M414.73,356a2,2,0,1,0,0-.31A1.61,1.61,0,0,0,414.73,356Z" fill="#fff"/>
<circle cx="410.11" cy="356" r="2" fill="#fff"/>
<circle cx="403.5" cy="356" r="2" fill="#fff"/>
<circle cx="429.92" cy="362.01" r="2" fill="#fff"/>
<circle cx="423.31" cy="362.01" r="2" fill="#fff"/>
<path d="M414.73,362a2,2,0,1,0,2-2h0A2,2,0,0,0,414.73,362Z" fill="#fff"/>
<circle cx="410.11" cy="362.01" r="2" fill="#fff"/>
<circle cx="403.5" cy="362.01" r="2" fill="#fff"/>
<rect x="434.58" y="347.97" width="1.16" height="16.04" fill="#c7c7c7"/>
<rect x="415.3" y="319.47" width="136.67" height="7.6" fill="#dbdbdb"/>
<rect x="702.32" y="299.28" width="65.31" height="278.7" fill="#c7c7c7"/>
<rect x="582.11" y="299.28" width="120.21" height="278.7" fill="#ebebeb"/>
<rect x="589.62" y="546.03" width="103.68" height="23.95" fill="#dbdbdb"/>
<rect x="629.92" y="549.99" width="59.02" height="2.02" fill="#ebebeb"/>
<rect x="629.92" y="553.49" width="59.02" height="2.02" fill="#ebebeb"/>
<rect x="629.92" y="557" width="59.02" height="2.02" fill="#ebebeb"/>
<rect x="629.92" y="560.5" width="59.02" height="2.02" fill="#ebebeb"/>
<rect x="629.92" y="564" width="59.02" height="2.02" fill="#ebebeb"/>
<path d="M619.17,552a2,2,0,1,0,0-.31A1.61,1.61,0,0,0,619.17,552Z" fill="#fff"/>
<path d="M612.56,552a2,2,0,1,0,2-2h0A2,2,0,0,0,612.56,552Z" fill="#fff"/>
<path d="M606,552a2,2,0,1,0,2-2h0A2,2,0,0,0,606,552Z" fill="#fff"/>
<path d="M599.34,552a2,2,0,1,0,2-2h0A2,2,0,0,0,599.34,552Z" fill="#fff"/>
<path d="M592.74,552a2,2,0,1,0,0-.31A1.61,1.61,0,0,0,592.74,552Z" fill="#fff"/>
<path d="M619.17,558a2,2,0,1,0,2-2h0A2,2,0,0,0,619.17,558Z" fill="#fff"/>
<path d="M612.56,558a2,2,0,1,0,2-2h0A2,2,0,0,0,612.56,558Z" fill="#fff"/>
<path d="M606,558a2,2,0,1,0,2-2h0A2,2,0,0,0,606,558Z" fill="#fff"/>
<path d="M599.34,558a2,2,0,1,0,2-2h0A2,2,0,0,0,599.34,558Z" fill="#fff"/>
<path d="M592.74,558a2,2,0,1,0,2-2h0A2,2,0,0,0,592.74,558Z" fill="#fff"/>
<path d="M619.17,564a2,2,0,1,0,2-2h0A2,2,0,0,0,619.17,564Z" fill="#fff"/>
<circle cx="614.57" cy="564.02" r="2" fill="#fff"/>
<path d="M606,564a2,2,0,1,0,2-2h0A2,2,0,0,0,606,564Z" fill="#fff"/>
<path d="M599.34,564a2,2,0,1,0,2-2h0A2,2,0,0,0,599.34,564Z" fill="#fff"/>
<path d="M592.74,564a2,2,0,1,0,2-2h0A2,2,0,0,0,592.74,564Z" fill="#fff"/>
<rect x="625.81" y="549.99" width="1.16" height="16.04" fill="#c7c7c7"/>
<rect x="589.62" y="517.17" width="103.68" height="23.95" fill="#dbdbdb"/>
<rect x="629.92" y="521.13" width="59.02" height="2.02" fill="#ebebeb"/>
<rect x="629.92" y="524.63" width="59.02" height="2.02" fill="#ebebeb"/>
<rect x="629.92" y="528.14" width="59.02" height="2.02" fill="#ebebeb"/>
<rect x="629.92" y="531.64" width="59.02" height="2.02" fill="#ebebeb"/>
<rect x="629.92" y="535.15" width="59.02" height="2.02" fill="#ebebeb"/>
<path d="M619.17,523.14a2,2,0,1,0,2-2h0A2,2,0,0,0,619.17,523.14Z" fill="#fff"/>
<path d="M612.56,523.14a2,2,0,1,0,2-2h0A2,2,0,0,0,612.56,523.14Z" fill="#fff"/>
<path d="M606,523.14a2,2,0,1,0,2-2h0A2,2,0,0,0,606,523.14Z" fill="#fff"/>
<path d="M599.34,523.14a2,2,0,1,0,2-2h0A2,2,0,0,0,599.34,523.14Z" fill="#fff"/>
<path d="M592.74,523.14a2,2,0,1,0,2-2h0A2,2,0,0,0,592.74,523.14Z" fill="#fff"/>
<path d="M619.17,529.15a2,2,0,1,0,0-.31A1.61,1.61,0,0,0,619.17,529.15Z" fill="#fff"/>
<path d="M612.56,529.15a2,2,0,1,0,2-2h0A2,2,0,0,0,612.56,529.15Z" fill="#fff"/>
<path d="M606,529.15a2,2,0,1,0,2-2h0A2,2,0,0,0,606,529.15Z" fill="#fff"/>
<path d="M599.34,529.15a2,2,0,1,0,2-2h0A2,2,0,0,0,599.34,529.15Z" fill="#fff"/>
<path d="M592.74,529.15a2,2,0,1,0,0-.31A1.61,1.61,0,0,0,592.74,529.15Z" fill="#fff"/>
<path d="M619.17,535.16a2,2,0,1,0,2-2h0A2,2,0,0,0,619.17,535.16Z" fill="#fff"/>
<circle cx="614.57" cy="535.16" r="2" fill="#fff"/>
<path d="M606,535.16a2,2,0,0,0,4,.31,1.61,1.61,0,0,0,0-.31,2,2,0,1,0-4,0Z" fill="#fff"/>
<path d="M599.34,535.16a2,2,0,0,0,4,.31,1.61,1.61,0,0,0,0-.31,2,2,0,0,0-4,0Z" fill="#fff"/>
<path d="M592.74,535.16a2,2,0,1,0,2-2h0A2,2,0,0,0,592.74,535.16Z" fill="#fff"/>
<rect x="625.81" y="521.13" width="1.16" height="16.04" fill="#c7c7c7"/>
<rect x="589.62" y="488.32" width="103.68" height="23.95" fill="#dbdbdb"/>
<rect x="629.92" y="492.27" width="59.02" height="2.02" fill="#ebebeb"/>
<rect x="629.92" y="495.78" width="59.02" height="2.02" fill="#ebebeb"/>
<rect x="629.92" y="499.28" width="59.02" height="2.02" fill="#ebebeb"/>
<rect x="629.92" y="502.78" width="59.02" height="2.02" fill="#ebebeb"/>
<rect x="629.92" y="506.29" width="59.02" height="2.02" fill="#ebebeb"/>
<path d="M619.17,494.33a2,2,0,1,0,2-2h0A2,2,0,0,0,619.17,494.33Z" fill="#fff"/>
<path d="M612.56,494.33a2,2,0,1,0,2-2h0A2,2,0,0,0,612.56,494.33Z" fill="#fff"/>
<path d="M606,494.33a2,2,0,1,0,2-2h0A2,2,0,0,0,606,494.33Z" fill="#fff"/>
<path d="M599.34,494.33a2,2,0,1,0,2-2h0A2,2,0,0,0,599.34,494.33Z" fill="#fff"/>
<path d="M592.74,494.33a2,2,0,1,0,2-2h0A2,2,0,0,0,592.74,494.33Z" fill="#fff"/>
<path d="M619.17,500.35a2,2,0,1,0,0-.31A1.61,1.61,0,0,0,619.17,500.35Z" fill="#fff"/>
<path d="M612.56,500.35a2,2,0,1,0,2-2h0A2,2,0,0,0,612.56,500.35Z" fill="#fff"/>
<path d="M606,500.35a2,2,0,1,0,2-2h0A2,2,0,0,0,606,500.35Z" fill="#fff"/>
<path d="M599.34,500.35a2,2,0,1,0,2-2h0A2,2,0,0,0,599.34,500.35Z" fill="#fff"/>
<path d="M592.74,500.35a2,2,0,1,0,0-.31A1.61,1.61,0,0,0,592.74,500.35Z" fill="#fff"/>
<path d="M619.17,506.3a2,2,0,1,0,2-2h0A2,2,0,0,0,619.17,506.3Z" fill="#fff"/>
<path d="M612.56,506.3a2,2,0,0,0,4,.31,1.61,1.61,0,0,0,0-.31,2,2,0,1,0-4,0Z" fill="#fff"/>
<path d="M606,506.3a2,2,0,0,0,4,.31,1.61,1.61,0,0,0,0-.31,2,2,0,1,0-4,0Z" fill="#fff"/>
<path d="M599.34,506.3a2,2,0,0,0,4,.31,1.61,1.61,0,0,0,0-.31,2,2,0,0,0-4,0Z" fill="#fff"/>
<path d="M592.74,506.3a2,2,0,1,0,2-2h0A2,2,0,0,0,592.74,506.3Z" fill="#fff"/>
<rect x="625.81" y="492.27" width="1.16" height="16.04" fill="#c7c7c7"/>
<rect x="589.62" y="459.47" width="103.68" height="23.95" fill="#dbdbdb"/>
<rect x="629.92" y="463.42" width="59.02" height="2.02" fill="#ebebeb"/>
<rect x="629.92" y="466.92" width="59.02" height="2.02" fill="#ebebeb"/>
<rect x="629.92" y="470.42" width="59.02" height="2.02" fill="#ebebeb"/>
<rect x="629.92" y="473.93" width="59.02" height="2.02" fill="#ebebeb"/>
<rect x="629.92" y="477.43" width="59.02" height="2.02" fill="#ebebeb"/>
<path d="M619.17,465.44a2,2,0,1,0,2-2h0A2,2,0,0,0,619.17,465.44Z" fill="#fff"/>
<path d="M612.56,465.44a2,2,0,1,0,2-2h0A2,2,0,0,0,612.56,465.44Z" fill="#fff"/>
<path d="M606,465.44a2,2,0,1,0,2-2h0A2,2,0,0,0,606,465.44Z" fill="#fff"/>
<path d="M599.34,465.44a2,2,0,1,0,2-2h0A2,2,0,0,0,599.34,465.44Z" fill="#fff"/>
<path d="M592.74,465.44a2,2,0,1,0,2-2h0A2,2,0,0,0,592.74,465.44Z" fill="#fff"/>
<path d="M619.17,471.46a2,2,0,1,0,0-.31A1.61,1.61,0,0,0,619.17,471.46Z" fill="#fff"/>
<circle cx="614.57" cy="471.43" r="2" fill="#fff"/>
<path d="M606,471.46a2,2,0,1,0,2-2h0A2,2,0,0,0,606,471.46Z" fill="#fff"/>
<path d="M599.34,471.46a2,2,0,1,0,2-2h0A2,2,0,0,0,599.34,471.46Z" fill="#fff"/>
<path d="M592.74,471.46a2,2,0,1,0,0-.31A1.61,1.61,0,0,0,592.74,471.46Z" fill="#fff"/>
<path d="M619.17,477.48a2,2,0,1,0,2-2h0A2,2,0,0,0,619.17,477.48Z" fill="#fff"/>
<path d="M612.56,477.48a2,2,0,0,0,4,.31,1.61,1.61,0,0,0,0-.31,2,2,0,0,0-4,0Z" fill="#fff"/>
<path d="M606,477.48a2,2,0,0,0,4,.31,1.61,1.61,0,0,0,0-.31,2,2,0,0,0-4,0Z" fill="#fff"/>
<path d="M599.34,477.48a2,2,0,0,0,4,.31,1.61,1.61,0,0,0,0-.31,2,2,0,0,0-4,0Z" fill="#fff"/>
<path d="M592.74,477.48a2,2,0,1,0,2-2h0A2,2,0,0,0,592.74,477.48Z" fill="#fff"/>
<rect x="625.81" y="463.42" width="1.16" height="16.04" fill="#c7c7c7"/>
<rect x="589.62" y="430.61" width="103.68" height="23.95" fill="#dbdbdb"/>
<rect x="629.92" y="434.56" width="59.02" height="2.02" fill="#ebebeb"/>
<rect x="629.92" y="438.06" width="59.02" height="2.02" fill="#ebebeb"/>
<rect x="629.92" y="441.56" width="59.02" height="2.02" fill="#ebebeb"/>
<rect x="629.92" y="445.07" width="59.02" height="2.02" fill="#ebebeb"/>
<rect x="629.92" y="448.57" width="59.02" height="2.02" fill="#ebebeb"/>
<path d="M619.17,436.54a2,2,0,1,0,2-2h0A2,2,0,0,0,619.17,436.54Z" fill="#fff"/>
<path d="M612.56,436.54a2,2,0,0,0,4,.31,1.61,1.61,0,0,0,0-.31,2,2,0,1,0-4,0Z" fill="#fff"/>
<path d="M606,436.54a2,2,0,0,0,4,.31,1.61,1.61,0,0,0,0-.31,2,2,0,1,0-4,0Z" fill="#fff"/>
<path d="M599.34,436.54a2,2,0,0,0,4,.31,1.61,1.61,0,0,0,0-.31,2,2,0,0,0-4,0Z" fill="#fff"/>
<path d="M592.74,436.54a2,2,0,1,0,2-2h0A2,2,0,0,0,592.74,436.54Z" fill="#fff"/>
<path d="M619.17,442.56a2,2,0,1,0,0-.31A1.61,1.61,0,0,0,619.17,442.56Z" fill="#fff"/>
<path d="M612.56,442.56a2,2,0,1,0,2-2h0A2,2,0,0,0,612.56,442.56Z" fill="#fff"/>
<path d="M606,442.56a2,2,0,1,0,2-2h0A2,2,0,0,0,606,442.56Z" fill="#fff"/>
<path d="M599.34,442.56a2,2,0,1,0,2-2h0A2,2,0,0,0,599.34,442.56Z" fill="#fff"/>
<path d="M592.74,442.56a2,2,0,1,0,0-.31A1.61,1.61,0,0,0,592.74,442.56Z" fill="#fff"/>
<path d="M619.17,448.58a2,2,0,1,0,2-2h0A2,2,0,0,0,619.17,448.58Z" fill="#fff"/>
<circle cx="614.57" cy="448.58" r="2" fill="#fff"/>
<path d="M606,448.58a2,2,0,0,0,4,.31,1.61,1.61,0,0,0,0-.31,2,2,0,1,0-4,0Z" fill="#fff"/>
<path d="M599.34,448.58a2,2,0,0,0,4,.31,1.61,1.61,0,0,0,0-.31,2,2,0,0,0-4,0Z" fill="#fff"/>
<path d="M592.74,448.58a2,2,0,1,0,2-2h0A2,2,0,0,0,592.74,448.58Z" fill="#fff"/>
<rect x="625.81" y="434.56" width="1.16" height="16.04" fill="#c7c7c7"/>
<rect x="589.62" y="401.75" width="103.68" height="23.95" fill="#dbdbdb"/>
<rect x="629.92" y="405.7" width="59.02" height="2.02" fill="#ebebeb"/>
<rect x="629.92" y="409.2" width="59.02" height="2.02" fill="#ebebeb"/>
<rect x="629.92" y="412.71" width="59.02" height="2.02" fill="#ebebeb"/>
<rect x="629.92" y="416.21" width="59.02" height="2.02" fill="#ebebeb"/>
<rect x="629.92" y="419.71" width="59.02" height="2.02" fill="#ebebeb"/>
<path d="M619.17,407.65a2,2,0,1,0,2-2h0A2,2,0,0,0,619.17,407.65Z" fill="#fff"/>
<circle cx="614.57" cy="407.7" r="2" fill="#fff"/>
<path d="M606,407.65a2,2,0,0,0,4,.31,1.61,1.61,0,0,0,0-.31,2,2,0,0,0-4,0Z" fill="#fff"/>
<path d="M599.34,407.65a2,2,0,0,0,4,.31,1.61,1.61,0,0,0,0-.31,2,2,0,0,0-4,0Z" fill="#fff"/>
<path d="M592.74,407.65a2,2,0,1,0,2-2h0A2,2,0,0,0,592.74,407.65Z" fill="#fff"/>
<path d="M619.17,413.67a2,2,0,1,0,0-.31A1.61,1.61,0,0,0,619.17,413.67Z" fill="#fff"/>
<path d="M612.56,413.67a2,2,0,1,0,2-2h0A2,2,0,0,0,612.56,413.67Z" fill="#fff"/>
<path d="M606,413.67a2,2,0,1,0,2-2h0A2,2,0,0,0,606,413.67Z" fill="#fff"/>
<path d="M599.34,413.67a2,2,0,1,0,2-2h0A2,2,0,0,0,599.34,413.67Z" fill="#fff"/>
<path d="M592.74,413.67a2,2,0,1,0,0-.31A1.61,1.61,0,0,0,592.74,413.67Z" fill="#fff"/>
<path d="M619.17,419.69a2,2,0,1,0,2-2h0A2,2,0,0,0,619.17,419.69Z" fill="#fff"/>
<path d="M612.56,419.69a2,2,0,0,0,4,.31,1.61,1.61,0,0,0,0-.31,2,2,0,0,0-4,0Z" fill="#fff"/>
<path d="M606,419.69a2,2,0,0,0,4,.31,1.61,1.61,0,0,0,0-.31,2,2,0,0,0-4,0Z" fill="#fff"/>
<path d="M599.34,419.69a2,2,0,0,0,4,.31,1.61,1.61,0,0,0,0-.31,2,2,0,1,0-4,0Z" fill="#fff"/>
<path d="M592.74,419.69a2,2,0,1,0,2-2h0A2,2,0,0,0,592.74,419.69Z" fill="#fff"/>
<rect x="625.81" y="405.7" width="1.16" height="16.04" fill="#c7c7c7"/>
<rect x="589.62" y="372.89" width="103.68" height="23.95" fill="#dbdbdb"/>
<rect x="629.92" y="376.84" width="59.02" height="2.02" fill="#ebebeb"/>
<rect x="629.92" y="380.34" width="59.02" height="2.02" fill="#ebebeb"/>
<rect x="629.92" y="383.85" width="59.02" height="2.02" fill="#ebebeb"/>
<rect x="629.92" y="387.35" width="59.02" height="2.02" fill="#ebebeb"/>
<rect x="629.92" y="390.85" width="59.02" height="2.02" fill="#ebebeb"/>
<path d="M619.17,378.84a2,2,0,1,0,2-2h0A2,2,0,0,0,619.17,378.84Z" fill="#fff"/>
<circle cx="614.57" cy="378.84" r="2" fill="#fff"/>
<path d="M606,378.84a2,2,0,0,0,4,.31,1.61,1.61,0,0,0,0-.31,2,2,0,1,0-4,0Z" fill="#fff"/>
<path d="M599.34,378.84a2,2,0,0,0,4,.31,1.61,1.61,0,0,0,0-.31,2,2,0,0,0-4,0Z" fill="#fff"/>
<path d="M592.74,378.84a2,2,0,1,0,2-2h0A2,2,0,0,0,592.74,378.84Z" fill="#fff"/>
<path d="M619.17,384.86a2,2,0,1,0,0-.31A1.61,1.61,0,0,0,619.17,384.86Z" fill="#fff"/>
<circle cx="614.57" cy="384.86" r="2" fill="#fff"/>
<path d="M606,384.86a2,2,0,1,0,2-2h0A2,2,0,0,0,606,384.86Z" fill="#fff"/>
<path d="M599.34,384.86a2,2,0,1,0,2-2h0A2,2,0,0,0,599.34,384.86Z" fill="#fff"/>
<path d="M592.74,384.86a2,2,0,1,0,0-.31A1.61,1.61,0,0,0,592.74,384.86Z" fill="#fff"/>
<path d="M619.17,390.87a2,2,0,1,0,2-2h0A2,2,0,0,0,619.17,390.87Z" fill="#fff"/>
<path d="M612.56,390.87a2,2,0,0,0,4,.31,1.61,1.61,0,0,0,0-.31,2,2,0,0,0-4,0Z" fill="#fff"/>
<path d="M606,390.87a2,2,0,0,0,4,.31,1.61,1.61,0,0,0,0-.31,2,2,0,0,0-4,0Z" fill="#fff"/>
<path d="M599.34,390.87a2,2,0,0,0,4,.31,1.61,1.61,0,0,0,0-.31,2,2,0,0,0-4,0Z" fill="#fff"/>
<path d="M592.74,390.87a2,2,0,1,0,2-2h0A2,2,0,0,0,592.74,390.87Z" fill="#fff"/>
<rect x="625.81" y="376.84" width="1.16" height="16.04" fill="#c7c7c7"/>
<rect x="589.62" y="344.02" width="103.68" height="23.95" fill="#dbdbdb"/>
<rect x="629.92" y="347.97" width="59.02" height="2.02" fill="#ebebeb"/>
<rect x="629.92" y="351.47" width="59.02" height="2.02" fill="#ebebeb"/>
<rect x="629.92" y="354.98" width="59.02" height="2.02" fill="#ebebeb"/>
<rect x="629.92" y="358.48" width="59.02" height="2.02" fill="#ebebeb"/>
<rect x="629.92" y="361.98" width="59.02" height="2.02" fill="#ebebeb"/>
<path d="M619.17,350a2,2,0,1,0,2-2h0A2,2,0,0,0,619.17,350Z" fill="#fff"/>
<path d="M612.56,350a2,2,0,0,0,4,.31,1.61,1.61,0,0,0,0-.31,2,2,0,0,0-4,0Z" fill="#fff"/>
<path d="M606,350a2,2,0,0,0,4,.31,1.61,1.61,0,0,0,0-.31,2,2,0,0,0-4,0Z" fill="#fff"/>
<path d="M599.34,350a2,2,0,0,0,4,.31,1.61,1.61,0,0,0,0-.31,2,2,0,0,0-4,0Z" fill="#fff"/>
<path d="M592.74,350a2,2,0,1,0,2-2h0A2,2,0,0,0,592.74,350Z" fill="#fff"/>
<path d="M619.17,356a2,2,0,1,0,0-.31A1.61,1.61,0,0,0,619.17,356Z" fill="#fff"/>
<circle cx="614.57" cy="356" r="2" fill="#fff"/>
<path d="M606,356a2,2,0,1,0,2-2h0A2,2,0,0,0,606,356Z" fill="#fff"/>
<path d="M599.34,356a2,2,0,1,0,2-2h0A2,2,0,0,0,599.34,356Z" fill="#fff"/>
<path d="M592.74,356a2,2,0,1,0,0-.31A1.61,1.61,0,0,0,592.74,356Z" fill="#fff"/>
<path d="M619.17,362a2,2,0,1,0,2-2h0A2,2,0,0,0,619.17,362Z" fill="#fff"/>
<circle cx="614.57" cy="362.01" r="2" fill="#fff"/>
<path d="M606,362a2,2,0,0,0,4,.31,1.61,1.61,0,0,0,0-.31,2,2,0,0,0-4,0Z" fill="#fff"/>
<path d="M599.34,362a2,2,0,0,0,4,.31,1.61,1.61,0,0,0,0-.31,2,2,0,0,0-4,0Z" fill="#fff"/>
<path d="M592.74,362a2,2,0,1,0,2-2h0A2,2,0,0,0,592.74,362Z" fill="#fff"/>
<rect x="625.81" y="347.97" width="1.16" height="16.04" fill="#c7c7c7"/>
<rect x="589.62" y="315.16" width="103.68" height="23.95" fill="#dbdbdb"/>
<rect x="629.92" y="319.11" width="59.02" height="2.02" fill="#ebebeb"/>
<rect x="629.92" y="322.62" width="59.02" height="2.02" fill="#ebebeb"/>
<rect x="629.92" y="326.12" width="59.02" height="2.02" fill="#ebebeb"/>
<rect x="629.92" y="329.62" width="59.02" height="2.02" fill="#ebebeb"/>
<rect x="629.92" y="333.13" width="59.02" height="2.02" fill="#ebebeb"/>
<path d="M619.17,321.12a2,2,0,1,0,2-2h0A2,2,0,0,0,619.17,321.12Z" fill="#fff"/>
<path d="M612.56,321.12a2,2,0,0,0,4,.31,1.61,1.61,0,0,0,0-.31,2,2,0,0,0-4,0Z" fill="#fff"/>
<path d="M606,321.12a2,2,0,0,0,4,.31,1.61,1.61,0,0,0,0-.31,2,2,0,0,0-4,0Z" fill="#fff"/>
<path d="M599.34,321.12a2,2,0,0,0,4,.31,1.61,1.61,0,0,0,0-.31,2,2,0,0,0-4,0Z" fill="#fff"/>
<path d="M592.74,321.12a2,2,0,1,0,2-2h0A2,2,0,0,0,592.74,321.12Z" fill="#fff"/>
<path d="M619.17,327.14a2,2,0,1,0,0-.31A1.61,1.61,0,0,0,619.17,327.14Z" fill="#fff"/>
<path d="M612.56,327.14a2,2,0,1,0,2-2h0A2,2,0,0,0,612.56,327.14Z" fill="#fff"/>
<path d="M606,327.14a2,2,0,1,0,2-2h0A2,2,0,0,0,606,327.14Z" fill="#fff"/>
<path d="M599.34,327.14a2,2,0,1,0,2-2h0A2,2,0,0,0,599.34,327.14Z" fill="#fff"/>
<path d="M592.74,327.14a2,2,0,1,0,0-.31A1.61,1.61,0,0,0,592.74,327.14Z" fill="#fff"/>
<path d="M619.17,333.15a2,2,0,1,0,2-2h0A2,2,0,0,0,619.17,333.15Z" fill="#fff"/>
<path d="M612.56,333.15a2,2,0,0,0,4,.31,1.61,1.61,0,0,0,0-.31,2,2,0,0,0-4,0Z" fill="#fff"/>
<path d="M606,333.15a2,2,0,0,0,4,.31,1.61,1.61,0,0,0,0-.31,2,2,0,0,0-4,0Z" fill="#fff"/>
<path d="M599.34,333.15a2,2,0,0,0,4,.31,1.61,1.61,0,0,0,0-.31,2,2,0,0,0-4,0Z" fill="#fff"/>
<path d="M592.74,333.15a2,2,0,1,0,2-2h0A2,2,0,0,0,592.74,333.15Z" fill="#fff"/>
<rect x="625.81" y="319.11" width="1.16" height="16.04" fill="#c7c7c7"/>
<rect x="606.54" y="291.69" width="136.67" height="7.6" fill="#dbdbdb"/>
<rect x="505.06" y="379.97" width="126.88" height="190.18" fill="#2f2e41" data-secondary="true"/>
<rect x="505.06" y="379.97" width="126.88" height="190.18" opacity="0.2" style="isolation:isolate"/>
<rect x="484.12" y="547.1" width="147.82" height="30.71" fill="#2f2e41" data-secondary="true"/>
<rect x="535.81" y="552.19" width="90.54" height="2.59" fill="#fff"/>
<rect x="535.81" y="556.68" width="90.54" height="2.59" fill="#fff"/>
<rect x="535.81" y="561.16" width="90.54" height="2.59" fill="#fff"/>
<rect x="535.81" y="565.66" width="90.54" height="2.59" fill="#fff"/>
<rect x="535.81" y="570.16" width="90.54" height="2.59" fill="#fff"/>
<path d="M522,554.76a2.58,2.58,0,1,0,2.58-2.58h0a2.57,2.57,0,0,0-2.57,2.56Z" fill="#fff"/>
<circle cx="516.1" cy="554.76" r="2.58" opacity="0.2" style="isolation:isolate"/>
<circle cx="507.64" cy="554.76" r="2.58" fill="#fff"/>
<path d="M496.6,554.76a2.58,2.58,0,1,0,2.58-2.58h0a2.57,2.57,0,0,0-2.57,2.57Z" fill="#fff"/>
<path d="M488.17,554.76a2.58,2.58,0,1,0,2.58-2.58,2.59,2.59,0,0,0-2.58,2.58Z" opacity="0.2" style="isolation:isolate"/>
<path d="M522,562.46a2.58,2.58,0,1,0,2.6-2.56h0a2.57,2.57,0,0,0-2.57,2.56Z" opacity="0.2" style="isolation:isolate"/>
<path d="M513.54,562.46a2.58,2.58,0,1,0,2.6-2.56h0a2.56,2.56,0,0,0-2.56,2.56Z" fill="#fff"/>
<path d="M505,562.46a2.58,2.58,0,1,0,2.6-2.56h0A2.58,2.58,0,0,0,505,562.46Z" opacity="0.2" style="isolation:isolate"/>
<path d="M496.6,562.46a2.58,2.58,0,1,0,2.6-2.56h0a2.57,2.57,0,0,0-2.58,2.54Z" fill="#fff"/>
<path d="M488.17,562.46a2.58,2.58,0,1,0,2.6-2.56h0A2.58,2.58,0,0,0,488.17,562.46Z" opacity="0.2" style="isolation:isolate"/>
<path d="M522,570.18a2.58,2.58,0,1,0,2.58-2.58h0a2.57,2.57,0,0,0-2.57,2.57h0Z" opacity="0.2" style="isolation:isolate"/>
<path d="M513.54,570.18a2.58,2.58,0,1,0,2.58-2.58h0a2.56,2.56,0,0,0-2.56,2.56h0Z" fill="#fff"/>
<path d="M505,570.18a2.58,2.58,0,1,0,2.58-2.58A2.59,2.59,0,0,0,505,570.18Z" fill="#fff"/>
<path d="M496.6,570.18a2.58,2.58,0,1,0,2.58-2.58h0A2.58,2.58,0,0,0,496.6,570.18Z" fill="#fff"/>
<path d="M488.17,570.18a2.58,2.58,0,1,0,2.58-2.58,2.59,2.59,0,0,0-2.58,2.58Z" fill="#fff"/>
<rect x="530.55" y="552.18" width="1.48" height="20.56" opacity="0.2" style="isolation:isolate"/>
<rect x="631.94" y="547.11" width="26.87" height="30.71" fill="#2f2e41" data-secondary="true"/>
<rect x="631.94" y="547.11" width="26.87" height="30.71" opacity="0.2" style="isolation:isolate"/>
<rect x="484.12" y="511.58" width="147.82" height="30.71" fill="#2f2e41" data-secondary="true"/>
<rect x="535.81" y="516.66" width="90.54" height="2.59" fill="#fff"/>
<rect x="535.81" y="521.16" width="90.54" height="2.59" fill="#fff"/>
<rect x="535.81" y="525.65" width="90.54" height="2.59" fill="#fff"/>
<rect x="535.81" y="530.14" width="90.54" height="2.59" fill="#fff"/>
<rect x="535.81" y="534.63" width="90.54" height="2.59" fill="#fff"/>
<path d="M522,519.23a2.58,2.58,0,1,0,2.58-2.58h0a2.57,2.57,0,0,0-2.57,2.57h0Z" opacity="0.2" style="isolation:isolate"/>
<circle cx="516.1" cy="519.23" r="2.58" fill="#fff"/>
<circle cx="507.64" cy="519.23" r="2.58" fill="#fff"/>
<path d="M496.6,519.23a2.58,2.58,0,1,0,2.58-2.58h0A2.58,2.58,0,0,0,496.6,519.23Z" fill="#fff"/>
<path d="M488.17,519.23a2.58,2.58,0,1,0,2.58-2.58,2.59,2.59,0,0,0-2.58,2.58Z" opacity="0.2" style="isolation:isolate"/>
<path d="M522,526.93a2.58,2.58,0,1,0,2.6-2.56h0a2.57,2.57,0,0,0-2.57,2.56Z" fill="#fff"/>
<path d="M513.54,526.93a2.58,2.58,0,1,0,2.66-2.5h-.1A2.56,2.56,0,0,0,513.54,526.93Z" opacity="0.2" style="isolation:isolate"/>
<path d="M505,526.93a2.58,2.58,0,1,0,2.6-2.56h0A2.58,2.58,0,0,0,505,526.93Z" opacity="0.2" style="isolation:isolate"/>
<path d="M496.6,526.93a2.58,2.58,0,1,0,2.6-2.56h0a2.57,2.57,0,0,0-2.58,2.56Z" opacity="0.2" style="isolation:isolate"/>
<path d="M488.17,526.93a2.58,2.58,0,1,0,2.6-2.56h0A2.58,2.58,0,0,0,488.17,526.93Z" fill="#fff"/>
<path d="M522,534.65a2.58,2.58,0,1,0,2.58-2.58h0a2.57,2.57,0,0,0-2.57,2.57h0Z" fill="#fff"/>
<path d="M513.54,534.65a2.58,2.58,0,1,0,2.58-2.58h0a2.56,2.56,0,0,0-2.56,2.56h0Z" fill="#fff"/>
<path d="M505,534.65a2.58,2.58,0,1,0,2.58-2.58A2.59,2.59,0,0,0,505,534.65Z" opacity="0.2" style="isolation:isolate"/>
<path d="M496.6,534.65a2.58,2.58,0,1,0,2.58-2.58h0A2.58,2.58,0,0,0,496.6,534.65Z" fill="#fff"/>
<path d="M488.17,534.65a2.58,2.58,0,1,0,2.58-2.58,2.59,2.59,0,0,0-2.58,2.58Z" fill="#fff"/>
<rect x="530.55" y="516.66" width="1.48" height="20.56" opacity="0.2" style="isolation:isolate"/>
<rect x="631.94" y="511.58" width="26.87" height="30.71" fill="#2f2e41" data-secondary="true"/>
<rect x="631.94" y="511.58" width="26.87" height="30.71" opacity="0.2" style="isolation:isolate"/>
<rect x="484.12" y="474.56" width="147.82" height="30.71" fill="#2f2e41" data-secondary="true"/>
<rect x="535.81" y="479.64" width="90.54" height="2.59" fill="#fff"/>
<rect x="535.81" y="484.15" width="90.54" height="2.59" fill="#fff"/>
<rect x="535.81" y="488.64" width="90.54" height="2.59" fill="#fff"/>
<rect x="535.81" y="493.12" width="90.54" height="2.59" fill="#fff"/>
<rect x="535.81" y="497.62" width="90.54" height="2.59" fill="#fff"/>
<path d="M522,482.21a2.58,2.58,0,1,0,2.59-2.57h0a2.57,2.57,0,0,0-2.57,2.57h0Z" opacity="0.2" style="isolation:isolate"/>
<path d="M513.54,482.21a2.58,2.58,0,1,0,2.59-2.57h0a2.56,2.56,0,0,0-2.56,2.56h0Z" fill="#fff"/>
<path d="M505,482.21a2.58,2.58,0,1,0,2.59-2.57h0a2.59,2.59,0,0,0-2.59,2.57Z" fill="#fff"/>
<path d="M496.6,482.21a2.58,2.58,0,1,0,2.59-2.57h0a2.57,2.57,0,0,0-2.58,2.56Z" fill="#fff"/>
<path d="M488.17,482.21a2.58,2.58,0,1,0,2.59-2.57h0a2.59,2.59,0,0,0-2.59,2.57Z" opacity="0.2" style="isolation:isolate"/>
<path d="M522,489.93a2.58,2.58,0,1,0,2.58-2.58h0a2.57,2.57,0,0,0-2.57,2.56Z" fill="#fff"/>
<path d="M513.54,489.93a2.58,2.58,0,1,0,2.58-2.58h0a2.56,2.56,0,0,0-2.56,2.56Z" fill="#fff"/>
<path d="M505,489.93a2.58,2.58,0,1,0,2.58-2.58h0A2.59,2.59,0,0,0,505,489.93Z" opacity="0.2" style="isolation:isolate"/>
<path d="M496.6,489.93a2.58,2.58,0,1,0,2.58-2.58h0a2.57,2.57,0,0,0-2.57,2.57Z" opacity="0.2" style="isolation:isolate"/>
<path d="M488.17,489.93a2.58,2.58,0,1,0,2.58-2.58h0a2.57,2.57,0,0,0-2.58,2.56Z" fill="#fff"/>
<path d="M522,497.64a2.58,2.58,0,1,0,2.59-2.57h0a2.56,2.56,0,0,0-2.57,2.55h0Z" opacity="0.2" style="isolation:isolate"/>
<path d="M513.54,497.64a2.58,2.58,0,1,0,2.59-2.57h0a2.55,2.55,0,0,0-2.56,2.54v0Z" fill="#fff"/>
<path d="M505,497.64a2.58,2.58,0,1,0,2.59-2.57h0A2.58,2.58,0,0,0,505,497.64Z" fill="#fff"/>
<path d="M496.6,497.64a2.58,2.58,0,1,0,2.59-2.57h0a2.57,2.57,0,0,0-2.57,2.57Z" fill="#fff"/>
<path d="M488.17,497.64a2.58,2.58,0,1,0,2.59-2.57h0a2.57,2.57,0,0,0-2.58,2.56Z" opacity="0.2" style="isolation:isolate"/>
<rect x="530.55" y="479.64" width="1.48" height="20.56" opacity="0.2" style="isolation:isolate"/>
<rect x="631.94" y="474.58" width="26.87" height="30.71" fill="#2f2e41" data-secondary="true"/>
<rect x="631.94" y="474.58" width="26.87" height="30.71" opacity="0.2" style="isolation:isolate"/>
<rect x="484.12" y="437.55" width="147.82" height="30.71" fill="#2f2e41" data-secondary="true"/>
<rect x="535.81" y="442.64" width="90.54" height="2.59" fill="#fff"/>
<rect x="535.81" y="447.13" width="90.54" height="2.59" fill="#fff"/>
<rect x="535.81" y="451.62" width="90.54" height="2.59" fill="#fff"/>
<rect x="535.81" y="456.12" width="90.54" height="2.59" fill="#fff"/>
<rect x="535.81" y="460.61" width="90.54" height="2.59" fill="#fff"/>
<path d="M522,445.2a2.58,2.58,0,1,0,2.6-2.56h0a2.57,2.57,0,0,0-2.59,2.53Z" fill="#fff"/>
<path d="M513.54,445.2a2.58,2.58,0,1,0,2.6-2.56h0a2.55,2.55,0,0,0-2.56,2.54v0Z" opacity="0.2" style="isolation:isolate"/>
<path d="M505,445.2a2.58,2.58,0,1,0,2.6-2.56h0A2.58,2.58,0,0,0,505,445.2Z" fill="#fff"/>
<path d="M496.6,445.2a2.58,2.58,0,1,0,2.6-2.56h0a2.57,2.57,0,0,0-2.58,2.54Z" fill="#fff"/>
<path d="M488.17,445.2a2.58,2.58,0,1,0,2.6-2.56h0A2.58,2.58,0,0,0,488.17,445.2Z" opacity="0.2" style="isolation:isolate"/>
<path d="M522,452.92a2.58,2.58,0,1,0,2.58-2.58h0A2.57,2.57,0,0,0,522,452.9h0Z" fill="#fff"/>
<path d="M513.54,452.92a2.58,2.58,0,1,0,2.58-2.58h0a2.56,2.56,0,0,0-2.56,2.56Z" fill="#fff"/>
<path d="M505,452.92a2.58,2.58,0,1,0,2.58-2.58h0A2.59,2.59,0,0,0,505,452.92Z" opacity="0.2" style="isolation:isolate"/>
<path d="M496.6,452.92a2.58,2.58,0,1,0,2.58-2.58h0a2.57,2.57,0,0,0-2.57,2.57Z" opacity="0.2" style="isolation:isolate"/>
<path d="M488.17,452.92a2.58,2.58,0,1,0,2.58-2.58h0a2.57,2.57,0,0,0-2.58,2.56Z" fill="#fff"/>
<path d="M522,460.62a2.58,2.58,0,1,0,2.6-2.56h0a2.57,2.57,0,0,0-2.57,2.56Z" opacity="0.2" style="isolation:isolate"/>
<circle cx="516.1" cy="460.62" r="2.58" fill="#fff"/>
<circle cx="507.64" cy="460.62" r="2.58" fill="#fff"/>
<path d="M496.6,460.62a2.58,2.58,0,1,0,2.6-2.56h0a2.57,2.57,0,0,0-2.58,2.54Z" opacity="0.2" style="isolation:isolate"/>
<path d="M488.17,460.62a2.58,2.58,0,1,0,2.6-2.56h0A2.58,2.58,0,0,0,488.17,460.62Z" fill="#fff"/>
<rect x="530.55" y="442.62" width="1.48" height="20.56" opacity="0.2" style="isolation:isolate"/>
<rect x="631.94" y="437.55" width="26.87" height="30.71" fill="#2f2e41" data-secondary="true"/>
<rect x="631.94" y="437.55" width="26.87" height="30.71" opacity="0.2" style="isolation:isolate"/>
<rect x="484.12" y="400.55" width="147.82" height="30.71" fill="#2f2e41" data-secondary="true"/>
<rect x="535.81" y="405.63" width="90.54" height="2.59" fill="#fff"/>
<rect x="535.81" y="410.11" width="90.54" height="2.59" fill="#fff"/>
<rect x="535.81" y="414.61" width="90.54" height="2.59" fill="#fff"/>
<rect x="535.81" y="419.1" width="90.54" height="2.59" fill="#fff"/>
<rect x="535.81" y="423.6" width="90.54" height="2.59" fill="#fff"/>
<path d="M522,408.19a2.58,2.58,0,1,0,2.58-2.58h0a2.57,2.57,0,0,0-2.57,2.57h0Z" fill="#fff"/>
<path d="M513.54,408.19a2.58,2.58,0,1,0,2.58-2.58h0a2.56,2.56,0,0,0-2.56,2.56h0Z" fill="#fff"/>
<path d="M505,408.19a2.58,2.58,0,1,0,2.58-2.58h0A2.6,2.6,0,0,0,505,408.19Z" fill="#fff"/>
<path d="M496.6,408.19a2.58,2.58,0,1,0,2.58-2.58h0A2.58,2.58,0,0,0,496.6,408.19Z" opacity="0.2" style="isolation:isolate"/>
<path d="M488.17,408.19a2.58,2.58,0,1,0,2.58-2.58h0A2.59,2.59,0,0,0,488.17,408.19Z" fill="#fff"/>
<path d="M522,415.9a2.58,2.58,0,1,0,2.59-2.57h0a2.57,2.57,0,0,0-2.59,2.55Z" opacity="0.2" style="isolation:isolate"/>
<path d="M513.54,415.9a2.58,2.58,0,1,0,2.59-2.57h0a2.56,2.56,0,0,0-2.56,2.56h0Z" fill="#fff"/>
<path d="M505,415.9a2.58,2.58,0,1,0,2.59-2.57h0A2.59,2.59,0,0,0,505,415.9Z" opacity="0.2" style="isolation:isolate"/>
<path d="M496.6,415.9a2.58,2.58,0,1,0,2.59-2.57h0a2.57,2.57,0,0,0-2.58,2.56Z" fill="#fff"/>
<path d="M488.17,415.9a2.58,2.58,0,1,0,2.59-2.57h0a2.59,2.59,0,0,0-2.59,2.57Z" fill="#fff"/>
<path d="M522,423.61a2.58,2.58,0,1,0,2.59-2.57h0A2.57,2.57,0,0,0,522,423.6h0Z" fill="#fff"/>
<path d="M513.54,423.61a2.58,2.58,0,1,0,2.59-2.57h0a2.56,2.56,0,0,0-2.56,2.56Z" opacity="0.2" style="isolation:isolate"/>
<path d="M505,423.61a2.58,2.58,0,1,0,2.6-2.61,2.59,2.59,0,0,0-2.6,2.61Z" fill="#fff"/>
<path d="M496.6,423.61a2.58,2.58,0,1,0,2.59-2.57h0a2.57,2.57,0,0,0-2.57,2.57Z" fill="#fff"/>
<path d="M488.17,423.61a2.58,2.58,0,1,0,2.59-2.57h0a2.57,2.57,0,0,0-2.58,2.56Z" opacity="0.2" style="isolation:isolate"/>
<rect x="530.55" y="405.63" width="1.48" height="20.56" opacity="0.2" style="isolation:isolate"/>
<rect x="631.94" y="400.55" width="26.87" height="30.71" fill="#2f2e41" data-secondary="true"/>
<rect x="631.94" y="400.55" width="26.87" height="30.71" opacity="0.2" style="isolation:isolate"/>
<rect x="484.12" y="363.53" width="147.82" height="30.71" fill="#2f2e41" data-secondary="true"/>
<rect x="535.81" y="368.61" width="90.54" height="2.59" fill="#fff"/>
<rect x="535.81" y="373.11" width="90.54" height="2.59" fill="#fff"/>
<rect x="535.81" y="377.6" width="90.54" height="2.59" fill="#fff"/>
<rect x="535.81" y="382.09" width="90.54" height="2.59" fill="#fff"/>
<rect x="535.81" y="386.58" width="90.54" height="2.59" fill="#fff"/>
<path d="M522,371.18a2.58,2.58,0,1,0,2.59-2.57h0a2.56,2.56,0,0,0-2.57,2.55h0Z" opacity="0.2" style="isolation:isolate"/>
<path d="M513.54,371.18a2.58,2.58,0,1,0,2.59-2.57h0a2.55,2.55,0,0,0-2.56,2.54v0Z" opacity="0.2" style="isolation:isolate"/>
<path d="M505,371.18a2.58,2.58,0,1,0,2.59-2.57h0A2.58,2.58,0,0,0,505,371.18Z" fill="#fff"/>
<path d="M496.6,371.18a2.58,2.58,0,1,0,2.59-2.57h0a2.57,2.57,0,0,0-2.57,2.57Z" opacity="0.2" style="isolation:isolate"/>
<path d="M488.17,371.18a2.58,2.58,0,1,0,2.59-2.57h0a2.57,2.57,0,0,0-2.58,2.56Z" fill="#fff"/>
<path d="M522,378.89a2.58,2.58,0,1,0,2.59-2.57h0a2.57,2.57,0,0,0-2.57,2.57h0Z" fill="#fff"/>
<path d="M513.54,378.89a2.58,2.58,0,1,0,2.62-2.54h0a2.55,2.55,0,0,0-2.61,2.49Z" fill="#fff"/>
<path d="M505,378.89a2.58,2.58,0,1,0,2.59-2.57h0a2.59,2.59,0,0,0-2.59,2.57Z" opacity="0.2" style="isolation:isolate"/>
<path d="M496.6,378.89a2.58,2.58,0,1,0,2.59-2.57h0a2.57,2.57,0,0,0-2.58,2.56Z" fill="#fff"/>
<path d="M488.17,378.89a2.58,2.58,0,1,0,2.59-2.57h0a2.59,2.59,0,0,0-2.59,2.57Z" opacity="0.2" style="isolation:isolate"/>
<path d="M522,386.6a2.58,2.58,0,1,0,2.59-2.57h0a2.57,2.57,0,0,0-2.57,2.56Z" fill="#fff"/>
<path d="M513.54,386.6a2.58,2.58,0,1,0,2.59-2.57h0a2.56,2.56,0,0,0-2.56,2.56Z" opacity="0.2" style="isolation:isolate"/>
<path d="M505,386.6a2.58,2.58,0,1,0,2.6-2.6,2.59,2.59,0,0,0-2.6,2.6Z" fill="#fff"/>
<path d="M496.6,386.6a2.58,2.58,0,1,0,2.59-2.57h0a2.57,2.57,0,0,0-2.57,2.57Z" fill="#fff"/>
<path d="M488.17,386.6a2.58,2.58,0,1,0,2.59-2.57h0a2.57,2.57,0,0,0-2.58,2.56Z" fill="#fff"/>
<rect x="530.55" y="368.61" width="1.48" height="20.56" opacity="0.2" style="isolation:isolate"/>
<rect x="631.94" y="363.54" width="26.87" height="30.71" fill="#2f2e41" data-secondary="true"/>
<rect x="631.94" y="363.54" width="26.87" height="30.71" opacity="0.2" style="isolation:isolate"/>
<rect x="325.99" y="198.19" width="180.37" height="113.79" fill="#2f2e41" data-secondary="true"/>
<rect x="325.99" y="198.19" width="180.37" height="10.03" fill="#0071f2" data-primary="true"/>
<path d="M335.41,203.27a2.53,2.53,0,1,1-2.54-2.52h0a2.53,2.53,0,0,1,2.54,2.52Z" fill="#fff"/>
<path d="M345.71,203.27a2.53,2.53,0,1,1-2.54-2.52h0a2.52,2.52,0,0,1,2.54,2.5Z" fill="#ebebeb"/>
<path d="M356,203.27a2.53,2.53,0,1,1-2.54-2.52h0A2.53,2.53,0,0,1,356,203.27Z" fill="#fff"/>
<rect x="336.76" y="228.15" width="5.36" height="1.96" fill="#ebebeb"/>
<rect x="346.01" y="228.15" width="86.55" height="1.96" fill="#ebebeb"/>
<rect x="435.86" y="228.15" width="10.17" height="1.96" fill="#0071f2" data-primary="true"/>
<rect x="452.15" y="254.34" width="10.17" height="1.96" fill="#ebebeb"/>
<rect x="448.25" y="228.15" width="34.31" height="1.96" fill="#a6a6a6"/>
<rect x="342.11" y="233.39" width="5.36" height="1.96" fill="#ebebeb"/>
<rect x="351.24" y="233.39" width="40.34" height="1.96" fill="#a6a6a6"/>
<rect x="434.48" y="254.34" width="15.25" height="1.96" fill="#a6a6a6"/>
<rect x="346.01" y="249.1" width="38.54" height="1.96" fill="#a6a6a6"/>
<rect x="351.24" y="238.63" width="27.03" height="1.96" fill="#0071f2" data-primary="true"/>
<rect x="442.67" y="243.86" width="27.03" height="1.96" fill="#a6a6a6"/>
<rect x="381.27" y="238.63" width="68.25" height="1.96" fill="#a6a6a6"/>
<rect x="346.01" y="254.34" width="84.97" height="1.96" fill="#0071f2" data-primary="true"/>
<rect x="447.12" y="233.39" width="44.64" height="1.96" fill="#0071f2" data-primary="true"/>
<rect x="394.11" y="233.39" width="50.79" height="1.96" fill="#ebebeb"/>
<rect x="468.27" y="238.63" width="17.35" height="1.96" fill="#ebebeb"/>
<rect x="342.11" y="238.63" width="5.36" height="1.96" fill="#ebebeb"/>
<rect x="336.76" y="243.86" width="5.36" height="1.96" fill="#a6a6a6"/>
<rect x="346.01" y="243.86" width="31.68" height="1.96" fill="#ebebeb"/>
<rect x="351.24" y="259.59" width="31.68" height="1.96" fill="#ebebeb"/>
<rect x="435.38" y="264.82" width="40.8" height="1.96" fill="#0071f2" data-primary="true"/>
<rect x="385.48" y="259.59" width="56.84" height="1.96" fill="#0071f2" data-primary="true"/>
<rect x="379.88" y="264.82" width="52.73" height="1.96" fill="#ebebeb"/>
<rect x="351.24" y="264.82" width="9.17" height="1.96" fill="#a6a6a6"/>
<rect x="386.73" y="249.1" width="59.32" height="1.96" fill="#ebebeb"/>
<rect x="448.25" y="249.1" width="38.5" height="1.96" fill="#0071f2" data-primary="true"/>
<rect x="380.9" y="243.86" width="59.27" height="1.96" fill="#0071f2" data-primary="true"/>
<rect x="336.76" y="249.1" width="5.36" height="1.96" fill="#ebebeb"/>
<rect x="336.76" y="254.34" width="5.36" height="1.96" fill="#ebebeb"/>
<rect x="342.11" y="259.59" width="5.36" height="1.96" fill="#a6a6a6"/>
<rect x="342.11" y="264.82" width="5.36" height="1.96" fill="#ebebeb"/>
<rect x="336.76" y="269.21" width="5.36" height="1.96" fill="#ebebeb"/>
<rect x="346.01" y="269.21" width="62.83" height="1.96" fill="#ebebeb"/>
<rect x="342.11" y="274.44" width="5.36" height="1.96" fill="#ebebeb"/>
<rect x="351.24" y="274.44" width="40.34" height="1.96" fill="#a6a6a6"/>
<rect x="346.01" y="290.17" width="38.54" height="1.96" fill="#a6a6a6"/>
<rect x="351.24" y="279.68" width="27.03" height="1.96" fill="#0071f2" data-primary="true"/>
<rect x="381.27" y="279.68" width="68.25" height="1.96" fill="#a6a6a6"/>
<rect x="346.01" y="295.4" width="84.97" height="1.96" fill="#0071f2" data-primary="true"/>
<rect x="447.12" y="274.44" width="44.64" height="1.96" fill="#0071f2" data-primary="true"/>
<rect x="394.11" y="274.44" width="50.79" height="1.96" fill="#ebebeb"/>
<rect x="468.27" y="279.68" width="17.35" height="1.96" fill="#ebebeb"/>
<rect x="342.11" y="279.68" width="5.36" height="1.96" fill="#ebebeb"/>
<rect x="336.76" y="284.93" width="5.36" height="1.96" fill="#a6a6a6"/>
<rect x="346.01" y="284.93" width="31.68" height="1.96" fill="#ebebeb"/>
<rect x="386.73" y="290.17" width="59.32" height="1.96" fill="#ebebeb"/>
<rect x="380.9" y="284.93" width="59.27" height="1.96" fill="#0071f2" data-primary="true"/>
<rect x="336.76" y="290.17" width="5.36" height="1.96" fill="#ebebeb"/>
<path d="M340.07,223a.47.47,0,0,1,0,.66.51.51,0,0,1-.33.13.43.43,0,0,1-.34-.13l-2.07-2.11h0v-.06h0v-.07h0v-.07h0l2.07-2.1a.49.49,0,0,1,.67.05.48.48,0,0,1,0,.62l-1.75,1.75Z" fill="#0071f2" data-primary="true"/>
<path d="M341.93,223.23l1.81-4.29a.41.41,0,0,1,.56-.14.4.4,0,0,1,.19.45l-1.81,4.29a.4.4,0,0,1-.37.25.43.43,0,0,1-.16,0,.4.4,0,0,1-.24-.51v0A.1.1,0,0,0,341.93,223.23Z" fill="#0071f2" data-primary="true"/>
<path d="M348,221.46h0l-2.06,2.1a.48.48,0,0,1-.34.14.43.43,0,0,1-.32-.14.45.45,0,0,1,0-.64h0l1.73-1.76-1.73-1.75a.46.46,0,0,1,0-.65h0a.47.47,0,0,1,.66,0l2.06,2.1h0v.07h0V221h0v.11h0S348.05,221.46,348,221.46Z" fill="#0071f2" data-primary="true"/>
<polygon points="646.82 142.71 570.13 141.04 572.31 40.88 630.12 42.14 648.58 61.42 646.82 142.71" fill="#0071f2" data-primary="true"/>
<polygon points="646.82 142.71 570.13 141.04 572.31 40.88 630.12 42.14 648.58 61.42 646.82 142.71" fill="#fff" opacity="0.6" style="isolation:isolate"/>
<polygon points="647.91 60.58 629.04 60.58 629.04 41.71 647.91 60.58" fill="#0071f2" data-primary="true"/>
<path d="M589,77a5.72,5.72,0,1,0,5.7-5.75A5.72,5.72,0,0,0,589,77Z" fill="#0071f2" data-primary="true"/>
<polygon points="597.77 102.42 636.56 102.42 617.17 78.74 597.77 102.42" fill="#0071f2" data-primary="true"/>
<polygon points="582.57 102.42 614.59 102.42 598.58 87 582.57 102.42" fill="#0071f2" data-primary="true"/>
<polygon points="582.57 102.42 614.59 102.42 598.58 87 582.57 102.42" opacity="0.1" style="isolation:isolate"/>
<path d="M637.76,103.62h-56.4V63.38h56.4Zm-54-2.4h51.59V65.78H583.77Z" fill="#0071f2" data-primary="true"/>
<rect x="552.59" y="106.5" width="55.09" height="22.8" fill="#2f2e41" data-secondary="true"/>
<path d="M568.76,112.74v11.05h-2.14v-4.71h-5v4.71h-2.16V112.74h2.16v4.46h5v-4.46Z" fill="#fff"/>
<path d="M579.34,114.6H575.8v9.17h-2.13V114.6h-3.52v-1.86h9.21Z" fill="#fff"/>
<path d="M589.72,123.77v-7.31l-2.85,5.44h-1.2l-2.85-5.44v7.31h-2.16v-11H583l3.28,6.29,3.3-6.29h2.27v11Z" fill="#fff"/>
<path d="M594.23,123.77v-11h2.16v9.17H602v1.88Z" fill="#fff"/>
<polygon points="782.76 141.88 706.05 141.88 706.05 41.71 763.88 41.71 782.76 60.58 782.76 141.88" fill="#0071f2" data-primary="true"/>
<polygon points="782.76 141.88 706.05 141.88 706.05 41.71 763.88 41.71 782.76 60.58 782.76 141.88" fill="#fff" opacity="0.6" style="isolation:isolate"/>
<polygon points="782.76 60.58 763.88 60.58 763.88 41.71 782.76 60.58" fill="#0071f2" data-primary="true"/>
<path d="M723.79,77a5.72,5.72,0,1,0,5.71-5.75A5.72,5.72,0,0,0,723.79,77Z" fill="#0071f2" data-primary="true"/>
<polygon points="732.61 102.42 771.4 102.42 752.01 78.74 732.61 102.42" fill="#0071f2" data-primary="true"/>
<polygon points="717.41 102.42 749.43 102.42 733.42 87 717.41 102.42" fill="#0071f2" data-primary="true"/>
<polygon points="717.41 102.42 749.43 102.42 733.42 87 717.41 102.42" opacity="0.1" style="isolation:isolate"/>
<path d="M772.61,103.62H716.2V63.33h56.41Zm-54-2.4H770.2V65.74H718.61Z" fill="#0071f2" data-primary="true"/>
<rect x="687.43" y="106.5" width="55.09" height="22.8" fill="#2f2e41" data-secondary="true"/>
<path d="M700.44,118.17a6,6,0,0,1,.37-2,5.09,5.09,0,0,1,1.07-1.77,5.35,5.35,0,0,1,1.71-1.2,5.25,5.25,0,0,1,2.31-.49,5.08,5.08,0,0,1,2.64.68,4.29,4.29,0,0,1,1.64,1.74l-1.64,1.14a2.81,2.81,0,0,0-.53-.79,2.55,2.55,0,0,0-.67-.5,2.76,2.76,0,0,0-.74-.28,3.41,3.41,0,0,0-2.18.24,3.12,3.12,0,0,0-1,.84,3.61,3.61,0,0,0-.6,1.21,4.85,4.85,0,0,0-.21,1.31,4.48,4.48,0,0,0,.23,1.41,3.91,3.91,0,0,0,.66,1.2,3.22,3.22,0,0,0,1,.83,2.71,2.71,0,0,0,1.31.3,3.44,3.44,0,0,0,.78-.08,3.7,3.7,0,0,0,.78-.3,2.81,2.81,0,0,0,.67-.52,2.3,2.3,0,0,0,.49-.77l1.76,1a3.08,3.08,0,0,1-.75,1.1,4.76,4.76,0,0,1-1.1.8,5.73,5.73,0,0,1-2.69.67,4.63,4.63,0,0,1-2.16-.5,5.92,5.92,0,0,1-3.2-5.28Z" fill="#fff"/>
<path d="M718.38,115.66a2.88,2.88,0,0,0-.39-.3c-.23-.13-.46-.25-.7-.36a7.45,7.45,0,0,0-.91-.3,3.39,3.39,0,0,0-1-.13,2.12,2.12,0,0,0-1.32.32,1.13,1.13,0,0,0-.44.93,1,1,0,0,0,.16.57,1.4,1.4,0,0,0,.48.39,4.41,4.41,0,0,0,.78.32c.32.09.69.19,1.1.28a14.79,14.79,0,0,1,1.47.47,4.13,4.13,0,0,1,1.12.63,2.57,2.57,0,0,1,.71.89,3,3,0,0,1,.25,1.29,3.08,3.08,0,0,1-.34,1.52,2.7,2.7,0,0,1-.9,1,4.44,4.44,0,0,1-1.3.57,6.77,6.77,0,0,1-1.55.18,8.2,8.2,0,0,1-2.41-.38,7.53,7.53,0,0,1-2.19-1.06l1-1.85a2.54,2.54,0,0,0,.5.36,9,9,0,0,0,.87.46,8.54,8.54,0,0,0,1.11.38,4.87,4.87,0,0,0,1.2.15c1.21,0,1.78-.38,1.78-1.13a.9.9,0,0,0-.2-.61,1.94,1.94,0,0,0-.58-.44,5.74,5.74,0,0,0-.9-.34l-1.21-.35a9.76,9.76,0,0,1-1.38-.47,3.64,3.64,0,0,1-1-.6,2.11,2.11,0,0,1-.59-.82,2.74,2.74,0,0,1-.2-1.09,3.38,3.38,0,0,1,.32-1.5,3.25,3.25,0,0,1,.86-1.09,3.9,3.9,0,0,1,1.28-.66,5.63,5.63,0,0,1,1.58-.22,6.07,6.07,0,0,1,2.15.36,7.87,7.87,0,0,1,1.71.87Z" fill="#fff"/>
<path d="M727.93,115.66a3,3,0,0,0-.4-.3,6.21,6.21,0,0,0-1.6-.66,3.76,3.76,0,0,0-1-.13,2.22,2.22,0,0,0-1.33.32,1.13,1.13,0,0,0-.44.93.91.91,0,0,0,.17.57,1.47,1.47,0,0,0,.47.39,5.44,5.44,0,0,0,.79.32c.31.09.69.19,1.1.28a11.15,11.15,0,0,1,1.46.47,4,4,0,0,1,1.12.63,2.29,2.29,0,0,1,.71.89,3,3,0,0,1,.26,1.29,3.19,3.19,0,0,1-.34,1.52,2.7,2.7,0,0,1-.9,1,4.2,4.2,0,0,1-1.32.57,6.62,6.62,0,0,1-1.54.18,8.25,8.25,0,0,1-2.46-.38,7.35,7.35,0,0,1-2.18-1.06l1-1.85a2.54,2.54,0,0,0,.5.36,7.23,7.23,0,0,0,.87.46,8.54,8.54,0,0,0,1.11.38,4.87,4.87,0,0,0,1.2.15c1.21,0,1.78-.38,1.78-1.13a.9.9,0,0,0-.2-.61,1.94,1.94,0,0,0-.58-.44,6.94,6.94,0,0,0-.9-.34l-1.21-.35a9.76,9.76,0,0,1-1.38-.47,3.91,3.91,0,0,1-1-.6,2.47,2.47,0,0,1-.57-.82,2.74,2.74,0,0,1-.2-1.09,3.38,3.38,0,0,1,.32-1.5,3.22,3.22,0,0,1,.85-1.09,4,4,0,0,1,1.29-.66,5.63,5.63,0,0,1,1.58-.22,6,6,0,0,1,2.14.36,7.72,7.72,0,0,1,1.72.87Z" fill="#fff"/>
<polygon points="513.07 141.88 436.37 141.88 436.37 41.71 494.19 41.71 513.07 60.57 513.07 141.88" fill="#0071f2" data-primary="true"/>
<polygon points="513.07 141.88 436.37 141.88 436.37 41.71 494.19 41.71 513.07 60.57 513.07 141.88" fill="#fff" opacity="0.6" style="isolation:isolate"/>
<polygon points="513.07 60.57 494.19 60.57 494.19 41.71 513.07 60.57" fill="#0071f2" data-primary="true"/>
<path d="M454.1,77a5.72,5.72,0,1,0,5.71-5.75A5.72,5.72,0,0,0,454.1,77Z" fill="#0071f2" data-primary="true"/>
<polygon points="462.93 102.41 501.72 102.41 482.32 78.73 462.93 102.41" fill="#0071f2" data-primary="true"/>
<polygon points="447.72 102.41 479.75 102.41 463.73 86.99 447.72 102.41" fill="#0071f2" data-primary="true"/>
<polygon points="447.72 102.41 479.75 102.41 463.73 86.99 447.72 102.41" opacity="0.1" style="isolation:isolate"/>
<path d="M502.92,103.61h-56.4V63.32h56.4Zm-54-2.41H500.5V65.72H448.93Z" fill="#0071f2" data-primary="true"/>
<rect x="417.74" y="106.49" width="55.09" height="22.8" fill="#2f2e41" data-secondary="true"/>
<path d="M438.13,121.5a3.33,3.33,0,0,0,1.87.5,2,2,0,0,0,1-.23,1.31,1.31,0,0,0,.59-.68,3.91,3.91,0,0,0,.26-1.21,14.62,14.62,0,0,0,.06-1.62v-5.62h2.16v5.62a19.58,19.58,0,0,1-.13,2.3,5,5,0,0,1-.57,1.77,2.91,2.91,0,0,1-1.2,1.13,5,5,0,0,1-2.18.41,4.18,4.18,0,0,1-2.41-.69Z" fill="#fff"/>
<path d="M449.07,123.92a6.49,6.49,0,0,1-2-.32,5.46,5.46,0,0,1-1.68-.94l.78-1.31a6.29,6.29,0,0,0,1.46.8,3.71,3.71,0,0,0,1.4.27,1.82,1.82,0,0,0,1-.23.76.76,0,0,0,.36-.68.66.66,0,0,0-.42-.63,7.36,7.36,0,0,0-1.37-.46q-.8-.23-1.35-.42a3.36,3.36,0,0,1-.9-.47,1.53,1.53,0,0,1-.51-.59,2,2,0,0,1-.16-.8,2.68,2.68,0,0,1,.24-1.12,2.59,2.59,0,0,1,.69-.85,3,3,0,0,1,1-.53,4,4,0,0,1,1.28-.19,5.32,5.32,0,0,1,1.72.26,4,4,0,0,1,1.47.86l-.84,1.26a4.85,4.85,0,0,0-1.21-.69,3.48,3.48,0,0,0-1.2-.21,1.69,1.69,0,0,0-.88.21.77.77,0,0,0-.36.7.64.64,0,0,0,.08.36.77.77,0,0,0,.28.26,2.55,2.55,0,0,0,.48.2,6.61,6.61,0,0,0,.76.22c.56.14,1,.29,1.44.43a4.22,4.22,0,0,1,1,.49,2.06,2.06,0,0,1,.56.65,1.93,1.93,0,0,1,.18.88,2.24,2.24,0,0,1-.89,1.89A3.77,3.77,0,0,1,449.07,123.92Z" fill="#fff"/>
<path d="M721.08,503a317.11,317.11,0,0,0-.46-33.35,423.77,423.77,0,0,0-10.45-67.95c-2.91-12.58-6.5-24.95-10.24-37.32-.11-.37-.71-.28-.6.12,11.55,43.53,21,88.45,20.39,133.71-.18,12.66-1.65,25.1-2.85,37.68,0,.34.51.47.6.13C719.85,525.27,720.62,514,721.08,503Z" fill="#0071f2" data-primary="true"/>
<path d="M699.33,364.52s-17.52,44.45-13.6,54.9,12,12.68,12,12.68-10.71,15.3-3.22,29.65,24.07,13.67,25.28,29.95C719.74,491.7,720.67,423.66,699.33,364.52Z" fill="#0071f2" data-primary="true"/>
<path d="M717.84,463.6a.45.45,0,0,0,0-.23,406.92,406.92,0,0,0-17-89.43c0-.08-.17-.06-.14,0,3.46,13,6.56,26.08,9.19,39.21a19.53,19.53,0,0,0-8.35-4.66c-.06,0-.1.07,0,.1a22.08,22.08,0,0,1,8.63,5.77c.51,2.57,1,5.15,1.49,7.72-3.92-4.37-9.34-6.53-14.78-8.6-.07,0-.11.09,0,.12,5.66,2.3,11.29,5.27,15.12,10.15q2,11.06,3.52,22.2a21.14,21.14,0,0,0-10.44-6c-.12,0-.19.15-.07.19a22,22,0,0,1,10.59,6.78h.07q.52,3.91,1,7.85a26.69,26.69,0,0,0-7.32-4.42c-.07,0-.11.08,0,.12a25,25,0,0,1,7.33,4.81h.1c.29,2.48.59,5,.84,7.48a35.66,35.66,0,0,0-14.86-10.61.09.09,0,0,0-.13,0h0a.1.1,0,0,0,0,.14h0a38.74,38.74,0,0,1,14.64,11.27.31.31,0,0,0,.37.12c.38,3.82.73,7.66,1,11.5h.09C718.43,471.46,718.12,467.52,717.84,463.6Z" fill="#2f2e41" data-secondary="true"/>
<path d="M703.77,404.11a21.81,21.81,0,0,0-10.52-3.27c-.09,0-.1.12,0,.13a41.8,41.8,0,0,1,10.4,3.39C703.79,404.43,703.9,404.21,703.77,404.11Z" fill="#2f2e41" data-secondary="true"/>
<path d="M705.89,451.18a22.41,22.41,0,0,0-7.9-2.71c-.1,0-.1.14,0,.16a29.59,29.59,0,0,1,7.81,2.73C705.9,451.42,706,451.24,705.89,451.18Z" fill="#2f2e41" data-secondary="true"/>
<path d="M767.12,420.15a119.25,119.25,0,0,0-20.28,17.72A73.12,73.12,0,0,0,732.63,462,179.73,179.73,0,0,0,722,519.61a140.38,140.38,0,0,0,3.12,32.51.3.3,0,0,0,.4.17h0a.3.3,0,0,0,.19-.29,182,182,0,0,1,.33-56.68c3-18.4,7.73-38.39,19.42-53.35,6.37-8.14,14.3-14.54,22.15-21.15a.43.43,0,0,0-.5-.67Z" fill="#0071f2" data-primary="true"/>
<path d="M724.62,506.37a109.7,109.7,0,0,1,14.77-18.89c8.77-8.75,16.15-15,17.28-20.77s-8.78-10.06-8.78-10.06,12.13,2.18,15.45-2.91,4.92-34.56,4.92-34.56S746.19,435,735.92,457,724.62,506.37,724.62,506.37Z" fill="#0071f2" data-primary="true"/>
<path d="M760.63,426.76c-9.28,9.11-18.63,18.83-24.08,30.8a118.09,118.09,0,0,0-4.82,12.71h0c-.28.86-.56,1.73-.83,2.61a.33.33,0,0,0,0,.14,251.27,251.27,0,0,0-6.27,27.22c0,.06.09.1.1,0,.95-4.6,2-9.24,3.16-13.87H728a19.29,19.29,0,0,1,5.79-1.48c.13,0,.12-.24,0-.23a21.87,21.87,0,0,0-5.73,1c1.07-4.18,2.24-8.34,3.54-12.45a62.56,62.56,0,0,1,13-1.67v-.06a49.11,49.11,0,0,0-12.85,1.08c.23-.7.45-1.39.7-2.1a64,64,0,0,1,8.7-1.47m0-.1a42.1,42.1,0,0,0-8.52,1c1.2-3.56,2.5-7.06,3.93-10.47a65.08,65.08,0,0,1,4.17-8.09,53,53,0,0,1,7.07-1.2V450a19.11,19.11,0,0,0-6.6.65c1.2-1.87,2.41-3.71,3.68-5.48h0c5-1.09,10-2.12,15-1.2a.08.08,0,1,0,0-.16c-4.82-1.26-9.63-.53-14.45.42.52-.7,1.06-1.38,1.6-2.07a32.82,32.82,0,0,1,9.23-1.45c.08,0,.09-.1,0-.1a24.09,24.09,0,0,0-8.62.76c4.1-5.08,8.61-9.85,13.08-14.57.25-.23.1-.36-.12-.14Z" fill="#2f2e41" data-secondary="true"/>
<path d="M760.38,446.85a19.55,19.55,0,0,0-4.39-.16c-.18,0-.16.32,0,.32,1.46,0,2.91-.06,4.36,0a.09.09,0,0,0,.1-.07.1.1,0,0,0-.07-.09Z" fill="#2f2e41" data-secondary="true"/>
<path d="M744.5,475.44a19.75,19.75,0,0,0-6.79,1.36v.1c2.25-.54,4.52-.76,6.79-1.13a.15.15,0,0,0,.11-.2h0A.17.17,0,0,0,744.5,475.44Z" fill="#2f2e41" data-secondary="true"/>
<path d="M739.79,465.56a14.63,14.63,0,0,0-2.88.26c-.09,0-.09.17,0,.17a14.8,14.8,0,0,0,2.9-.13.16.16,0,0,0,.1-.2A.17.17,0,0,0,739.79,465.56Z" fill="#2f2e41" data-secondary="true"/>
<path d="M660,451.42a101.16,101.16,0,0,1,20.46,9.64,61.23,61.23,0,0,1,17.08,16.22,151.55,151.55,0,0,1,21.89,44.21,118.17,118.17,0,0,1,5,27,.27.27,0,0,1-.32.2.26.26,0,0,1-.2-.2,153.33,153.33,0,0,0-13.36-45.75c-6.69-14.18-15.14-29.29-28-38.68-7-5.12-14.94-8.43-22.82-12C659.25,451.87,659.55,451.28,660,451.42Z" fill="#0071f2" data-primary="true"/>
<path d="M714.29,511.4A92.14,92.14,0,0,0,698,499.53c-9.11-5.07-16.53-8.42-18.79-12.82S684,476.54,684,476.54s-9.31,4.56-13.17,1.2-12-26.83-12-26.83,21.49,7.64,34.91,23.14S714.29,511.4,714.29,511.4Z" fill="#0071f2" data-primary="true"/>
<path d="M713.17,506.56c-10.75-20.17-25.09-38.43-44.75-50.48h0a100.35,100.35,0,0,1,14.38,11.26,22.88,22.88,0,0,0-11.55,2.41c-.08,0,0,.14,0,.12a31.71,31.71,0,0,1,11.89-2h.14c.7.66,1.38,1.33,2.07,2a36.71,36.71,0,0,0-6.18.82c-.06,0,0,.09,0,.08a32.47,32.47,0,0,1,6.53-.54,136.67,136.67,0,0,1,10.13,11.51,10.5,10.5,0,0,0-4.32.31.09.09,0,0,0-.08.09.09.09,0,0,0,.08.08,22.2,22.2,0,0,1,4.61-.06c.59.75,1.21,1.49,1.76,2.25a41.29,41.29,0,0,0-13,1.27m0,.09a52.38,52.38,0,0,1,13.4-.86c.54.72,1.07,1.48,1.6,2.21a27.79,27.79,0,0,0-7.76.89.08.08,0,0,0-.08.07.09.09,0,0,0,.08.08h0a29.88,29.88,0,0,1,8-.63q3.46,4.82,6.66,9.74a7.43,7.43,0,0,0-3.41.2m0,.1a14.17,14.17,0,0,1,3.68.18q2.87,4.47,5.54,9c.31.26.72.07.59-.2Z" fill="#2f2e41" data-secondary="true"/>
<path d="M696.45,489.83a16.56,16.56,0,0,0-6.25.76v.09a46.17,46.17,0,0,1,6.21-.63C696.57,490,696.59,489.84,696.45,489.83Z" fill="#2f2e41" data-secondary="true"/>
<path d="M677.7,465.23a11,11,0,0,0-2.92.21.09.09,0,0,0-.09.08.09.09,0,0,0,.09.09h0c1-.1,1.89-.06,2.83-.09a.14.14,0,0,0,.18-.07v0A.16.16,0,0,0,677.7,465.23Z" fill="#2f2e41" data-secondary="true"/>
<polygon points="742 578.11 693.5 578.11 700.41 527.45 702.18 514.46 733.32 514.46 735.09 527.45 742 578.11" fill="#2f2e41" data-secondary="true"/>
<polygon points="735.09 527.45 700.41 527.45 702.18 514.46 733.32 514.46 735.09 527.45" opacity="0.2" style="isolation:isolate"/>
<rect x="697.72" y="509.95" width="40.04" height="11" fill="#2f2e41" data-secondary="true"/>
<rect x="575.79" y="172.93" width="1.2" height="136.75" fill="#2f2e41" data-secondary="true"/>
<polygon points="473.42 174.01 473.42 152.46 474.62 152.46 474.62 172.81 739.85 171.85 739.85 152.46 741.05 152.46 741.05 173.05 740.45 173.06 473.42 174.01" fill="#2f2e41" data-secondary="true"/>
<path d="M225.49,342.58a42.78,42.78,0,0,1-4.55,4.48,43.17,43.17,0,0,1-4.84,4.12,45.72,45.72,0,0,1,4.55-4.47A44.33,44.33,0,0,1,225.49,342.58Z" fill="#263238"/>
<path d="M225.1,351.54a44.75,44.75,0,0,1-4.48-4.55,43.17,43.17,0,0,1-4.12-4.84A84,84,0,0,1,225.1,351.54Z" fill="#263238"/>
<path d="M241.92,351.35q0-.35,0-.69l0-1.83c0-1.57-.08-3.79-.11-6.44l.21.21h-9l.24-.23h0v9l-.21-.2c2.65,0,4.87.06,6.45.1l1.82.05H242a3,3,0,0,1-.6,0l-1.82.06c-1.57,0-3.84.08-6.59.11h-.2v-9.18h0l.24-.25h9.2v.2c0,2.74-.08,5-.11,6.59,0,.61,0,1.21-.06,1.82A2.6,2.6,0,0,1,241.92,351.35Z" fill="#263238"/>
<path d="M258.67,350.55a50.08,50.08,0,0,1-9.64,0A48.52,48.52,0,0,1,258.67,350.55Z" fill="#263238"/>
<path d="M213.92,262.64a1.19,1.19,0,1,1-1.19-1.19h0a1.19,1.19,0,0,1,1.19,1.19Z" fill="#e0e0e0"/>
<path d="M234.4,253.34s3.09-27.38-21.2-23.91C197.32,231.7,187.5,253.21,202,263S234.4,253.34,234.4,253.34Z" fill="#2f2e41" data-secondary="true"/>
<g opacity="0.22">
<ellipse cx="253.12" cy="629.36" rx="145.25" ry="12.65" fill="#0071f2" data-primary="true"/>
</g>
<path d="M251.05,635.64c-63.45-2.23-129-10.88-163-127.8-10.1-34.75-3.53-61.07,7.55-80.9a118.43,118.43,0,0,1,8.86-13.54h0c1.17-1.55,2.36-3.06,3.54-4.52,24.79-30.4,66.37-41.3,103.22-27.87,20.67,7.54,47.19,18.68,70.83,33.17,47.5,29.1,58.64,62.29,74.16,119.22,1.33,4.89,2.66,10.37,3.67,16.19.54,3.12,1,6.32,1.3,9.59C364.58,595.57,350.54,639.14,251.05,635.64Z" fill="#bcbec0"/>
<path d="M361.14,559.17A75,75,0,0,1,352,576.84c-12,17.19-37,38-87.87,39.3-2.23.06-4.45.09-6.63.09-19.44,0-36.59-2.34-52.25-7.13A127.82,127.82,0,0,1,161.53,586c-21.79-17.58-39.76-43.31-58.24-83.42C96,486.75,92.21,470.69,92,454.87a104.06,104.06,0,0,1,3.52-27.93,118.43,118.43,0,0,1,8.86-13.54q-1.18,2.73-2.28,5.7c-6.64,18.23-11.22,47.23,4.73,81.84,32.43,70.39,70,113.55,157.19,111.27,49.24-1.3,73.27-21.17,84.74-37.62a68.9,68.9,0,0,0,11-25A94.78,94.78,0,0,1,361.14,559.17Z" fill="#a7a9ac"/>
<path d="M270.38,343.41s39.83,54,48.92,81-13,46-13,46l-20.48,7.69S264.8,383.05,270.38,343.41Z" fill="#0071f2" data-primary="true"/>
<g opacity="0.2">
<path d="M270.38,343.41s39.83,54,48.92,81-13,46-13,46l-20.48,7.69S264.8,383.05,270.38,343.41Z"/>
</g>
<path d="M266.87,494.8c-17.42,5.77-60,20.9-78.43,14.78a17.64,17.64,0,0,1-2.21-.9,11.63,11.63,0,0,1-4.76-4c-7.25-11-14.43-57.3-11.21-84.5a109.15,109.15,0,0,0,.67-11c.1-5.71-.09-11.81-.34-17.95-.91-23.1-4.55-39.06,5.33-44.67a115.32,115.32,0,0,1,27.26-10.69c4.43-1.06,11.68-3.28,16.77-3.18l22,4s19,3.17,23.4,6.41,6.63,17.49,14.55,30.55,9.65,26.15,2.08,40.49c-6.59,12.46-5.43,7.74-6.29,28.19C274.66,467.43,300.86,483.53,266.87,494.8Z" fill="#fff"/>
<g opacity="0.2">
<path d="M208.39,377.35s23.87-6.18,54.33-.48l.73,21.05s-33.49-3.72-54.59,1.65Z" fill="#0071f2" data-primary="true"/>
</g>
<g opacity="0.2">
<g opacity="0.8">
<path d="M235.81,359.56h-1c-13-.68-25-12.19-25.5-12.68a.89.89,0,0,1,0-1.26h0a.91.91,0,0,1,1.26,0c.12.12,12,11.53,24.35,12.17,11.85.63,13.28-11.13,13.33-11.62a.9.9,0,1,1,1.8,0,1.11,1.11,0,0,1,0,.19C250,346.45,248.45,359.56,235.81,359.56Z" fill="#0071f2" data-primary="true"/>
</g>
</g>
<g opacity="0.8">
<path d="M198.84,465a1.2,1.2,0,0,1-.24-.26.94.94,0,0,1,.32-1.28,109.6,109.6,0,0,1,43.9-15.12,80.31,80.31,0,0,1,19.35-.21.93.93,0,0,1-.28,1.84,80.45,80.45,0,0,0-18.93.23A107.59,107.59,0,0,0,199.88,465,.94.94,0,0,1,198.84,465Z" fill="#ccd3e6"/>
</g>
<path d="M221,503.18c-15.67-5-29.85-15-39.53-23.88l-2.21-2.09c-5-4.87-8.55-2.37-10.08-5.18-5.86-10.72-2.54-52.78,0-68.23s-8.13-43.75-2.39-53.87,25.49-13.65,25.49-13.65-2.8-3.26,2.51-7,19.43-2.18,19.43-2.18C214.9,394,224.37,456.06,221,503.18Z" fill="#0071f2" data-primary="true"/>
<path d="M205.6,484a.88.88,0,0,1-.86-.74c-7.13-46.37-.08-133.6,0-134.48a.88.88,0,0,1,1.75.15c-.08.87-7.11,87.89,0,134.06a.88.88,0,0,1-.73,1Z" fill="#fff"/>
<g opacity="0.2">
<path d="M220,491a.87.87,0,0,1-.86-.72C209.76,437,209,345.08,209,344.16a.89.89,0,0,1,.87-.88h0a.89.89,0,0,1,.88.87c0,.92.75,92.67,10.05,145.79a.88.88,0,0,1-.71,1Z"/>
</g>
<g opacity="0.2">
<path d="M204.47,343.62h-.23a29.29,29.29,0,0,1-12.1-6.51.88.88,0,0,1,1.23-1.25h0a28.06,28.06,0,0,0,11.32,6.07.88.88,0,0,1,.62,1.07A.86.86,0,0,1,204.47,343.62Z"/>
</g>
<path d="M288.91,474a48.11,48.11,0,0,1-26.38,27.77c-2.58-51-8.44-109.23-16-171.19,0,0,8-1.39,11.27,3.15a12.67,12.67,0,0,1,1.73,5.27,41.17,41.17,0,0,1,8.51,2.86c4.45,2.07,3.94,4.92,5,12.15s12.22,18.4,15.85,33.55-6,24.81-9,37.52S288.91,474,288.91,474Z" fill="#0071f2" data-primary="true"/>
<path d="M271.06,481.88a.87.87,0,0,1-.87-.85c-2-69.38-14.68-131.37-14.81-132a.87.87,0,1,1,1.71-.35c.13.62,12.83,62.75,14.84,132.29a.86.86,0,0,1-.82.9h-.05Z" fill="#fff"/>
<g opacity="0.2">
<path d="M251.92,345.55a.88.88,0,0,1-.15-1.74c.06,0,5.66-1,6.94-5.08a.88.88,0,0,1,1.15-.47.89.89,0,0,1,.52,1c-1.61,5.08-8,6.23-8.31,6.27Z"/>
</g>
<g opacity="0.2">
<path d="M269,481.88a.87.87,0,0,1-.86-.77C262,430,252.29,348.22,252.19,347.4a.87.87,0,0,1,1.73-.21h0c.1.82,9.82,82.57,16,133.71a.86.86,0,0,1-.7,1h-.06Z"/>
</g>
<path d="M217.36,518.61c2.66,1.9,6.86,3.88,13.14,5.88,35.68,11.35,68.39-7,68.39-7,2-9.77.75-20.87-2.54-24.94a3.56,3.56,0,0,0,.35-3.17l32.84-34.08c-18.68,15.47-41.77,20.53-59.75,31.4h0c-5.18,3.13-9.84,5.89-13.25,7.81-5.21,2.92-11.86,3.21-18.38,2.31-12.7-1.76-24.88-8-24.88-8s-40.89-18.54-48.56-17.92C158.75,471.4,190.83,504.89,217.36,518.61Z" fill="#2f2e41" data-secondary="true"/>
<g opacity="0.4">
<path d="M217.36,518.61c2.66,1.9,6.86,3.88,13.14,5.88,35.68,11.35,68.39-7,68.39-7,2-9.77.75-20.87-2.54-24.94a3.56,3.56,0,0,0,.35-3.17l32.84-34.08c-18.68,15.47-41.77,20.53-59.75,31.4h0c-5.18,3.13-9.84,5.89-13.25,7.81-5.21,2.92-11.86,3.21-18.38,2.31-12.7-1.76-24.88-8-24.88-8s-40.89-18.54-48.56-17.92C158.75,471.4,190.83,504.89,217.36,518.61Z"/>
</g>
<path d="M280.56,547.17s-10.52-3-13.75-6.44L259.49,558l24.9,7.77S284.74,550.6,280.56,547.17Z" fill="#f9b499"/>
<path d="M340.65,596.93,308.46,525.5a11,11,0,0,0-4.39.84c-6.24,2.28-15,8.55-20.67,12.23-.66.44-1.28.84-1.85,1.18a22.21,22.21,0,0,1-2.38,1.33c-5,2.24-2.35,4.92-2.35,4.92,9.25,4.62,3.62,18.34,9.26,21.55,0,0,2.4,1.39,10.06,4.77s15.37,11.5,22.5,18.16c9.21,8.6,15,9.62,18.31,8.83A6.18,6.18,0,0,0,340.65,596.93Z" fill="#0071f2" data-primary="true"/>
<path d="M308.46,525.5a11,11,0,0,0-4.39.84L308,535a18.07,18.07,0,0,1-6.89,4.67c-7.21,2.83-13.88.74-17.68-1.09-.66.44-1.28.84-1.85,1.18,3.86,2.08,11.57,5,20.21,1.65a19.83,19.83,0,0,0,7-4.6L337,599.31a6.18,6.18,0,0,0,3.7-2.38Z" opacity="0.2" style="isolation:isolate"/>
<path d="M299.81,569.21a1.29,1.29,0,0,0-2.45.76l.9,5a1.29,1.29,0,0,0,2.54-.46l-.9-5A1.71,1.71,0,0,0,299.81,569.21Z" fill="#fff"/>
<path d="M294.09,566.44a1.29,1.29,0,0,0-1.71-.63,1.3,1.3,0,0,0-.73,1.4l.9,5a1.29,1.29,0,1,0,2.54-.46l-.9-5A1.12,1.12,0,0,0,294.09,566.44Z" fill="#fff"/>
<path d="M304.41,572.5a1.29,1.29,0,0,0-2.45.76l.91,5a1.27,1.27,0,1,0,2.5-.5l-.91-5A1.09,1.09,0,0,0,304.41,572.5Z" fill="#fff"/>
<path d="M308.92,575.84a1.29,1.29,0,0,0-2.45.76l.9,5a1.29,1.29,0,0,0,2.54-.46h0l-.9-5A1.71,1.71,0,0,0,308.92,575.84Z" fill="#fff"/>
<path d="M313.41,579.66a1.29,1.29,0,0,0-1.71-.63,1.3,1.3,0,0,0-.73,1.4l.9,5a1.29,1.29,0,0,0,2.54-.46l-.9-5A1.12,1.12,0,0,0,313.41,579.66Z" fill="#fff"/>
<path d="M317.76,584.06a1.29,1.29,0,0,0-2.45.76l.9,5a1.29,1.29,0,0,0,2.54-.46l-.9-5A1.71,1.71,0,0,0,317.76,584.06Z" fill="#fff"/>
<path d="M164.71,470.92s-25.88-14-40.87-3.17c-27.41,19.74,19.1,57.72,72.31,76.27s70.49,16,70.49,16,11.56-3.18,7.46-21.91c0,0-30.68-11.67-46.63-23.88S200.63,487.06,164.71,470.92Z" fill="#2f2e41" data-secondary="true"/>
<g opacity="0.2">
<path d="M272,543.56c-11.16-2.68-33.9-13.11-60.83-27.9-20.15-11.06-43.38-25.19-46.78-30.1-1.85-2.64-2.31-4.81-1.38-6.43,1.38-2.43,5.37-2.69,7.19-2.67a.8.8,0,0,1,.8.82v.05h0a.81.81,0,0,1-.8.75c-1.79,0-4.9.29-5.79,1.85-.73,1.29.3,3.27,1.3,4.71,2.75,3.95,22.2,16.4,46.23,29.6,20.7,11.37,47.45,24.63,60.43,27.75Z"/>
</g>
<path d="M269.92,535.63c-1.25,9.85-3.8,18.8-9.37,25.66,0,0,4.76,3.43,9.12,1,3.33-1.91,9.73-17.29,7.33-25.5C274.18,535.27,271.78,534.74,269.92,535.63Z" fill="#2f2e41" data-secondary="true"/>
<g opacity="0.3">
<path d="M269.92,535.63c-1.25,9.85-3.8,18.8-9.37,25.66,0,0,4.76,3.43,9.12,1,3.33-1.91,9.73-17.29,7.33-25.5C274.18,535.27,271.78,534.74,269.92,535.63Z"/>
</g>
<path d="M202.4,545.23s10.6-2.05,13.6-5.67l8.44,16.69-24.32,9.42S198.47,548.92,202.4,545.23Z" fill="#f9b499"/>
<path d="M146.05,600.57l27.34-73.43a11,11,0,0,1,4.44.55c6.38,1.86,15.56,7.53,21.45,10.82.68.39,1.33.75,1.91,1.06a22.38,22.38,0,0,0,2.48,1.16c5.1,1.9,3,3.34,3,3.34-10,4.72-2.69,19.95-8.1,23.53,0,0-2.31,1.55-9.72,5.43s-14.57,12.5-21.24,19.63c-8.62,9.2-14.32,10.59-17.67,10A6.16,6.16,0,0,1,146.05,600.57Z" fill="#0071f2" data-primary="true"/>
<path d="M199.28,538.51c-3.68,2.08-10.19,4.61-17.58,2.26a17.76,17.76,0,0,1-7.18-4.2l3.31-8.88a11,11,0,0,0-4.44-.55l-2,5.31h0l-.46,1.22L146,600.57a6.17,6.17,0,0,0,3.86,2.12l23.92-64.26a19.52,19.52,0,0,0,7.31,4.13c8.85,2.8,16.35-.66,20-3C200.61,539.26,200,538.9,199.28,538.51Z" opacity="0.2" style="isolation:isolate"/>
<path d="M185,570.17a1.29,1.29,0,0,1,2.49.6l-.57,5a1.29,1.29,0,0,1-2.58-.15s0-.09,0-.14l.57-5A1.08,1.08,0,0,1,185,570.17Z" fill="#fff"/>
<path d="M190.47,567a1.29,1.29,0,0,1,2.49.59l-.57,5a1.29,1.29,0,0,1-2.57-.29l.57-5A1.11,1.11,0,0,1,190.47,567Z" fill="#fff"/>
<path d="M180.58,573.77a1.27,1.27,0,0,1,1.35-.83,1.28,1.28,0,0,1,1.14,1.42l-.57,5a1.29,1.29,0,1,1-2.57-.29l.57-5A1.67,1.67,0,0,1,180.58,573.77Z" fill="#fff"/>
<path d="M176.31,577.4a1.29,1.29,0,0,1,2.49.6l-.57,5a1.29,1.29,0,0,1-2.57-.29l.57-5A1.09,1.09,0,0,1,176.31,577.4Z" fill="#fff"/>
<path d="M172.07,581.52a1.3,1.3,0,0,1,2.5.59l-.57,5a1.29,1.29,0,1,1-2.57-.3l.57-5A1.37,1.37,0,0,1,172.07,581.52Z" fill="#fff"/>
<path d="M168,586.19a1.29,1.29,0,0,1,2.49.6l-.56,5a1.29,1.29,0,1,1-2.57-.29h0l.57-5A1.55,1.55,0,0,1,168,586.19Z" fill="#fff"/>
<path d="M319,459.58s24.49-16.28,40.41-6.91c29.11,17.14-13.73,59.23-65,82.58s-68.72,22.41-68.72,22.41-11.8-2.11-9.43-21.14c0,0,29.47-14.42,44.24-28S284.72,478.94,319,459.58Z" fill="#2f2e41" data-secondary="true"/>
<g opacity="0.2">
<path d="M319,459.58s24.49-16.28,40.41-6.91c29.11,17.14-13.73,59.23-65,82.58s-68.72,22.41-68.72,22.41-11.8-2.11-9.43-21.14c0,0,29.47-14.42,44.24-28S284.72,478.94,319,459.58Z"/>
</g>
<g opacity="0.2">
<path d="M218.81,541.76c10.86-3.7,32.55-16.17,58-33.37,19-12.86,40.88-29.07,43.82-34.26,1.59-2.81,1.86-5,.78-6.54-1.6-2.29-5.6-2.18-7.4-2a.81.81,0,0,0-.73.88s0,0,0,.06h0a.8.8,0,0,0,.87.67c1.78-.18,4.91-.16,5.93,1.31.85,1.22,0,3.29-.87,4.81-2.37,4.19-20.59,18.37-43.32,33.72-19.56,13.22-45,28.88-57.62,33.17Z"/>
</g>
<path d="M220.17,533.66c2.15,9.69,5.52,18.37,11.69,24.7,0,0-4.43,3.85-9,1.8-3.48-1.57-11.27-16.3-9.59-24.7C215.9,533.69,218.24,533,220.17,533.66Z" fill="#2f2e41" data-secondary="true"/>
<g opacity="0.3">
<path d="M220.17,533.66c2.15,9.69,5.52,18.37,11.69,24.7,0,0-4.43,3.85-9,1.8-3.48-1.57-11.27-16.3-9.59-24.7C215.9,533.69,218.24,533,220.17,533.66Z"/>
</g>
<path d="M216.86,456l-2,28.1s-33.41-4.77-49.81-9A67.15,67.15,0,0,1,150,469.73c-9.06-4.82-16.57-13.19-16-29.53a74.71,74.71,0,0,1,3.24-18.34c11.94-40.81,31.93-75.07,31.93-75.07,25.73,11,23.57,29.34,23.57,29.34-7.35,19.58-23.57,61.28-23.57,61.28C178.6,448.91,216.86,456,216.86,456Z" fill="#0071f2" data-primary="true"/>
<g opacity="0.2">
<path d="M169.19,438.28a.84.84,0,0,1-.46-.13c-2.84-1.76-10.59-3.58-10.67-3.6a.87.87,0,0,1,.4-1.7,68.74,68.74,0,0,1,9.29,2.86,15.43,15.43,0,0,0-2.57-3.77.87.87,0,0,1,1.31-1.15h0a13.4,13.4,0,0,1,3.56,6.47.88.88,0,0,1-.38.87A.83.83,0,0,1,169.19,438.28Z"/>
</g>
<g opacity="0.2">
<path d="M150,469.73c-9.06-4.82-16.57-13.19-16-29.53C141.19,444,153.69,453.05,150,469.73Z"/>
</g>
<g opacity="0.2">
<path d="M195.85,451.66h-.22a69.06,69.06,0,0,1-27-13.58.89.89,0,0,1-.19-1.05c11.8-23.21,19.27-41.64,23.5-58a.87.87,0,0,1,1.69.44c-4.22,16.34-11.64,34.7-23.32,57.74A69.56,69.56,0,0,0,196.09,450a.87.87,0,0,1,.67,1,.88.88,0,0,1-.88.69Z"/>
</g>
<path d="M217.82,321.13l29.69,4.24c19.28-1.93,25.42-9.59,28.58-25.8a44.08,44.08,0,0,0-1-20.7c-.41-6.09-1.79-11.35-4.68-14.83-13-15.7-24.5-15.09-24.5-15.09-5.83-2.67-25.09-4.5-37.79,10.92h0c-.4.35-8.14,8.55-9.93,25.78C196.46,302.08,207.41,323.06,217.82,321.13Z" fill="#2f2e41" data-secondary="true"/>
<path d="M204.46,265.79a.76.76,0,0,1-.77-.77.68.68,0,0,1,.09-.37,35.15,35.15,0,0,1,19.4-16.75,31.38,31.38,0,0,1,11.27-1.9.77.77,0,0,1,.06,1.54h-.15a33.27,33.27,0,0,0-29.23,17.84A.75.75,0,0,1,204.46,265.79Z" fill="#0071f2" data-primary="true"/>
<path d="M220.15,315s-18.93-10.6-15.21-32.65,18.24-35.32,40.5-28.93C245.44,253.37,243.28,317.12,220.15,315Z" fill="#2f2e41" data-secondary="true"/>
<path d="M272.81,274.47s1.93,18.93-1.52,21.67-6.83-4.74-6.83-4.74S269.17,274.68,272.81,274.47Z" fill="#2f2e41" data-secondary="true"/>
<path d="M264.09,297.86s5.65-5,7.52,1.12-1.93,17.25-8.95,14.29Z" fill="#f7a48b"/>
<path d="M247.63,325.18l-2.33,15.65s-8.81,11.71-31-8.32c2.53-6.38,5.63-14,4.64-20.27a35,35,0,0,0,4.4,3.26l1.84,1.14C231,320.14,239.75,324.62,247.63,325.18Z" fill="#f9b499"/>
<path d="M247.63,325.18l-1.09,7.33c-6.47-2.49-17.67-7.89-23.2-17l1.84,1.14C231,320.14,239.75,324.62,247.63,325.18Z" fill="#f7a48b"/>
<path d="M268.9,298.56c-.25,1.62-.48,3.14-.72,4.58-1.78,10.79-3.41,16.61-6.41,18.91-15.18,11.64-41.94-8.93-42.8-9.6h0c-.09-1.25-.15-2.5-.19-3.72a96.43,96.43,0,0,1,3.29-28.59,21.76,21.76,0,0,1,17.15-19.33c9.68-2,17.31,3.29,22,5.55,7.13,3.41,10.39,13.75,8.38,27.51C269.36,295.5,269.13,297.07,268.9,298.56Z" fill="#f9b499"/>
<path d="M225.72,306.21c-.12.18-3.21,5.17-6.75,6.24h0c-.09-1.26-.15-2.51-.19-3.73A13.6,13.6,0,0,0,225.72,306.21Z" fill="#2f2e41" data-secondary="true"/>
<path d="M224.32,293.59s-5.59-10.43-11.81-3.81c-5.13,5.45.41,22.82,9.83,18.18Z" fill="#f9b499"/>
<path d="M241.65,303.14A10.63,10.63,0,1,1,255.38,297,10.63,10.63,0,0,1,241.65,303.14Zm7-18.41a9.08,9.08,0,1,0,5.25,11.72,9.07,9.07,0,0,0-5.25-11.72Z" fill="#fff"/>
<path d="M235.85,290.84a1,1,0,0,1-.29-.07,15.74,15.74,0,0,0-11.2-.61.76.76,0,0,1-1-.42v0a.78.78,0,0,1,.45-1,17.14,17.14,0,0,1,12.4.65.77.77,0,0,1,.38,1A.79.79,0,0,1,235.85,290.84Z" fill="#fff"/>
<path d="M265.17,305.8a10.63,10.63,0,1,1,13.73-6.14A10.63,10.63,0,0,1,265.17,305.8Zm7-18.41a9.08,9.08,0,1,0,5.25,11.72,9.07,9.07,0,0,0-5.25-11.72Z" fill="#fff"/>
<path d="M254.87,292.5a.79.79,0,0,1-.31-1.07.78.78,0,0,1,.26-.28,4.83,4.83,0,0,1,5.39.42.78.78,0,0,1,.05,1.1.79.79,0,0,1-1,.13,3.26,3.26,0,0,0-3.61-.33A.8.8,0,0,1,254.87,292.5Z" fill="#fff"/>
<path d="M260.57,256.79a25.5,25.5,0,0,1,13.79,15c1.41,4.21,2.6,9.75-3.31,9-16.12-2-24.74-18.68-24.74-18.68s-3.14,15.42-15.8,13.53-12.26-11.43-5.06-16.83C231.31,254.43,246.25,250.34,260.57,256.79Z" fill="#2f2e41" data-secondary="true"/>
<path d="M231,273.89s-7.21,7.73-4.62,16.06,2.76,15,.06,19.46c0,0-.69-8.76-3.9-15.41-2.63-5.45-5.09-9.6-3.19-15.9C220.67,273.79,223.82,269.64,231,273.89Z" fill="#2f2e41" data-secondary="true"/>
<path d="M191.3,504.09l-7.44-14.15a5.26,5.26,0,0,1,4.71-7.71l116.93,1.26-3.45,18.11Z" fill="#a7a9ac"/>
<path d="M300,500.1H195.39a4,4,0,0,1-4.11-3.89,3.88,3.88,0,0,1,0-.68l7.14-64.65a5.24,5.24,0,0,1,5.08-4.57H308.18a4,4,0,0,1,4.1,3.9,3.77,3.77,0,0,1,0,.67l-7.13,64.65A5.24,5.24,0,0,1,300,500.1Z" fill="#d1d3d4"/>
<path d="M193.83,502.89h-.11a.88.88,0,0,1-.76-1v0l8.68-69.25a.88.88,0,0,1,1.75.22h0l-8.68,69.25A.89.89,0,0,1,193.83,502.89Z" fill="#bcbec0"/>
<path d="M244.74,464.36a9.2,9.2,0,0,0,8.34,10l.2,0a9.5,9.5,0,0,0,10-8.81,9.2,9.2,0,0,0-8.34-10l-.2,0A9.5,9.5,0,0,0,244.74,464.36Z" fill="#bcbec0"/>
<path d="M300.54,505.73H194.45a3.85,3.85,0,0,1-3.85-3.83,4.55,4.55,0,0,1,0-.53l1-7.4H305.5l-1.15,8.44A3.85,3.85,0,0,1,300.54,505.73Z" fill="#d1d3d4"/>
<path d="M223.66,484.87l-.76,3.69h3.5L226,493h-4l-.85,4h-4.62l.85-4h-2.86l-.85,4H209l.85-4h-3.5l.4-4.39h4l.76-3.69H208l.39-4.39h4l.85-4H218l-.85,4H220l.85-4h4.62l-.85,4h3.5l-.39,4.39Zm-4.62,0h-2.86l-.76,3.69h2.86Z" fill="#a7a9ac"/>
</svg>