 <!DOCTYPE svg PUBLIC "-//W3C//DTD SVG 1.1//EN" "http://www.w3.org/Graphics/SVG/1.1/DTD/svg11.dtd">
<svg xmlns="http://www.w3.org/2000/svg" width="865.76" height="682.89" viewBox="0 0 865.76 682.89">
<defs>
<style xmlns="http://www.w3.org/1999/xhtml">*, ::after, ::before { box-sizing: border-box; }
img, svg { vertical-align: middle; }
</style>
<style xmlns="http://www.w3.org/1999/xhtml">*, body, html { -webkit-font-smoothing: antialiased; }
img, svg { max-width: 100%; }
</style>
</defs>
<path d="M530.9,389.84s2.29,1.58,1.14,3a1.93,1.93,0,0,1-2.14.57c-4.14-1.35-19.41-8.21-13.63-34.84C516.27,358.61,515.47,387.14,530.9,389.84Z" fill="#0071f2" data-primary="true"/>
<ellipse cx="624.51" cy="577.92" rx="205.52" ry="33.71" fill="#e6e6e6"/>
<path d="M440.53,538.6c32.77,87.08,279.35,43.33,279.35,43.33C838.19,555,829.67,459.25,829.67,459.25c2.06-36.05-.31-63.82-5-85.18,0,0,0-.05,0-.08-13.55-61.65-46.29-69.89-46.29-69.89l-9.54-3h0l-24.09-7.56L715.8,310.14,625.92,456.21l-162.08-2.77C422.54,490.94,440.53,538.6,440.53,538.6Z" fill="#ccc"/>
<path d="M719.55,474s6.55,31.83-38.39,32.77l-111.42-1.88-40.26-5.61s-9.36-46.82-52.43-73l-5,5.85s-6.23-5.85,12.5-10.53c0,0,55.76-21,123.85-1.6Z" fill="#2f2e41" data-secondary="true"/>
<path d="M525.6,545.3s18.86,26.07,77.85,20.45c0,0,137-1.87,185.51-59,0,0,49-49.23,35.7-132.7,0,0,0-.05,0-.08-13.55-61.65-46.29-69.89-46.29-69.89l-9.54-3h0S800.07,445,725.17,500.21l-8.43-1.87s-26.22-11.24-59.92-7.49c0,0-66.48,8.43-87.08,14,0,0-21.79,7.54-44.14,10.32C525.6,515.21,506.76,526.73,525.6,545.3Z" fill="#b3b3b3"/>
<path d="M700,231.53l2.68,21.5s12.28.85,22.29,4.81l4.22,8.6s-7.12,36.52-7.61,36.21-60,2.35-60,2.35L647,307l2.32-35.91,5.79-18.54a45,45,0,0,1,9.27-2.31,44.47,44.47,0,0,1,12.15,0L673.6,239.8Z" fill="#f9b499"/>
<rect x="35.93" y="71.26" width="428.59" height="342.87" rx="10.01" fill="#0071f2" data-primary="true"/>
<rect x="46.35" y="110.65" width="405.42" height="293.06" fill="#fff"/>
<rect x="61.99" y="213.16" width="130.89" height="173.75" fill="#0071f2" opacity="0.29" data-primary="true"/>
<rect x="215.47" y="213.74" width="222.4" height="173.75" fill="#0071f2" opacity="0.29" data-primary="true"/>
<path d="M427.45,198.1H71.84a11,11,0,0,1-11-11V141.92a11,11,0,0,1,11-11H427.45a11,11,0,0,1,11,11V187.1A11,11,0,0,1,427.45,198.1Zm-355.61-66A9.86,9.86,0,0,0,62,141.92V187.1a9.85,9.85,0,0,0,9.85,9.84H427.45a9.85,9.85,0,0,0,9.84-9.84V141.92a9.85,9.85,0,0,0-9.84-9.85Z" fill="#0071f2" data-primary="true"/>
<path d="M437.87,141.92V187.1a10.43,10.43,0,0,1-10.42,10.42H369.53v-66h57.92A10.42,10.42,0,0,1,437.87,141.92Z" fill="#0071f2" data-primary="true"/>
<path d="M400.23,174.93A12.74,12.74,0,1,1,413,162.19,12.76,12.76,0,0,1,400.23,174.93Zm0-24.32a11.59,11.59,0,1,0,11.58,11.58A11.6,11.6,0,0,0,400.23,150.61Z" fill="#fff"/>
<rect x="413.67" y="168.41" width="1.16" height="14.9" transform="translate(-8.45 330.32) rotate(-43.08)" fill="#fff"/>
<rect x="354.47" y="91.53" width="15.06" height="1.16" fill="#fff"/>
<path d="M409.49,100.8H394.44V85.74h15.05Zm-13.9-1.16h12.75V86.9H395.59Z" fill="#fff"/>
<rect x="430.1" y="91.53" width="22.75" height="1.16" transform="translate(66.23 342.27) rotate(-45.47)" fill="#fff"/>
<rect x="440.9" y="80.73" width="1.16" height="22.75" transform="translate(62.22 336.14) rotate(-44.54)" fill="#fff"/>
<path d="M125.12,154l-6.48,22.34h-3.27l-5.19-18-5.38,18-3.24,0L95.31,154h3.11l4.87,18.94L108.67,154h3.27l5.13,18.88L122,154Z" fill="#2f2e41" data-secondary="true"/>
<path d="M158.32,154l-6.47,22.34h-3.27l-5.19-18-5.39,18-3.24,0L128.51,154h3.11l4.88,18.94L141.88,154h3.27l5.13,18.88,4.9-18.88Z" fill="#2f2e41" data-secondary="true"/>
<path d="M191.53,154l-6.48,22.34h-3.26l-5.2-18-5.38,18-3.24,0L161.72,154h3.11l4.87,18.94L175.09,154h3.27l5.12,18.88L188.39,154Z" fill="#2f2e41" data-secondary="true"/>
<path d="M196.18,175.91a1.92,1.92,0,0,1-.58-1.41,2,2,0,0,1,2-2,1.81,1.81,0,0,1,1.36.58,2,2,0,0,1,.56,1.41,2,2,0,0,1-.56,1.41,1.84,1.84,0,0,1-1.36.57A1.92,1.92,0,0,1,196.18,175.91Z" fill="#2f2e41" data-secondary="true"/>
<path d="M321.81,269.85a1.37,1.37,0,0,1,1-2.33,1.25,1.25,0,0,1,.94.4,1.42,1.42,0,0,1,0,1.93,1.25,1.25,0,0,1-.94.4A1.31,1.31,0,0,1,321.81,269.85Z" fill="#2f2e41" data-secondary="true"/>
<path d="M327.2,260.8a5.44,5.44,0,0,1,2.08-2.17,6,6,0,0,1,3.05-.77,6,6,0,0,1,3.67,1.08,5.08,5.08,0,0,1,1.9,3h-2.16a3.07,3.07,0,0,0-1.2-1.74,3.73,3.73,0,0,0-2.21-.64,3.56,3.56,0,0,0-2.77,1.18,5.82,5.82,0,0,0,0,6.7,3.54,3.54,0,0,0,2.77,1.19,3.67,3.67,0,0,0,2.2-.62,3.08,3.08,0,0,0,1.21-1.76h2.16a5.26,5.26,0,0,1-1.94,3,5.72,5.72,0,0,1-3.63,1.12,6,6,0,0,1-3.05-.77,5.46,5.46,0,0,1-2.08-2.18,7,7,0,0,1-.74-3.3A6.92,6.92,0,0,1,327.2,260.8Z" fill="#2f2e41" data-secondary="true"/>
<path d="M343.19,269.55a5.55,5.55,0,0,1-2.15-2.2,6.68,6.68,0,0,1-.78-3.28,6.44,6.44,0,0,1,.8-3.27,5.41,5.41,0,0,1,2.19-2.18,6.72,6.72,0,0,1,6.21,0,5.57,5.57,0,0,1,2.19,2.17,6.56,6.56,0,0,1,.8,3.28,6.39,6.39,0,0,1-.83,3.28,5.75,5.75,0,0,1-2.23,2.2,6.45,6.45,0,0,1-3.13.77A6.22,6.22,0,0,1,343.19,269.55Zm5.1-1.5a3.92,3.92,0,0,0,1.53-1.52,4.84,4.84,0,0,0,.58-2.46,5,5,0,0,0-.57-2.47,3.76,3.76,0,0,0-1.5-1.51,4.35,4.35,0,0,0-4,0,3.69,3.69,0,0,0-1.47,1.51,5.89,5.89,0,0,0,0,4.95,3.57,3.57,0,0,0,1.44,1.51,4.1,4.1,0,0,0,2,.5A4.22,4.22,0,0,0,348.29,268.05Z" fill="#2f2e41" data-secondary="true"/>
<path d="M372.54,258.42a4.14,4.14,0,0,1,1.74,1.75,5.79,5.79,0,0,1,.64,2.84v7.11h-2V263.3a3.94,3.94,0,0,0-.89-2.77,3.13,3.13,0,0,0-2.41-.95,3.23,3.23,0,0,0-2.49,1,4.08,4.08,0,0,0-.92,2.89v6.65h-2V263.3a3.9,3.9,0,0,0-.9-2.77,3.11,3.11,0,0,0-2.41-.95,3.19,3.19,0,0,0-2.48,1,4.08,4.08,0,0,0-.93,2.89v6.65h-2V258.06h2v1.74a4,4,0,0,1,1.6-1.46,4.92,4.92,0,0,1,2.21-.5,5.14,5.14,0,0,1,2.68.68,4.12,4.12,0,0,1,1.74,2,4,4,0,0,1,1.68-2,4.89,4.89,0,0,1,2.59-.7A5.25,5.25,0,0,1,372.54,258.42Z" fill="#2f2e41" data-secondary="true"/>
<path d="M323,312.71a1.31,1.31,0,0,1-.39-1,1.33,1.33,0,0,1,1.36-1.36,1.24,1.24,0,0,1,.93.39,1.34,1.34,0,0,1,.39,1,1.31,1.31,0,0,1-.39,1,1.21,1.21,0,0,1-.93.4A1.31,1.31,0,0,1,323,312.71Z" fill="#2f2e41" data-secondary="true"/>
<path d="M328.36,303.66a5.37,5.37,0,0,1,2.08-2.17,6.61,6.61,0,0,1,6.72.31,5.05,5.05,0,0,1,1.9,3H336.9a3.07,3.07,0,0,0-1.2-1.74,3.66,3.66,0,0,0-2.21-.64,3.53,3.53,0,0,0-2.77,1.18,4.79,4.79,0,0,0-1.06,3.33,4.87,4.87,0,0,0,1.06,3.37,3.54,3.54,0,0,0,2.77,1.19,3.76,3.76,0,0,0,2.2-.62,3.08,3.08,0,0,0,1.21-1.76h2.16a5.29,5.29,0,0,1-1.94,3,5.81,5.81,0,0,1-3.63,1.11,5.94,5.94,0,0,1-3.05-.77,5.44,5.44,0,0,1-2.08-2.17,6.94,6.94,0,0,1-.75-3.31A6.79,6.79,0,0,1,328.36,303.66Z" fill="#2f2e41" data-secondary="true"/>
<path d="M344.35,312.4a5.4,5.4,0,0,1-2.15-2.19,6.59,6.59,0,0,1-.79-3.29,6.44,6.44,0,0,1,.81-3.26,5.41,5.41,0,0,1,2.19-2.18,6.7,6.7,0,0,1,6.2,0,5.48,5.48,0,0,1,2.19,2.16,6.49,6.49,0,0,1,.81,3.28,6.41,6.41,0,0,1-.83,3.29,5.66,5.66,0,0,1-2.23,2.19,6.34,6.34,0,0,1-3.13.77A6.11,6.11,0,0,1,344.35,312.4Zm5.1-1.49a3.92,3.92,0,0,0,1.53-1.52,4.88,4.88,0,0,0,.58-2.47,4.94,4.94,0,0,0-.57-2.46,3.7,3.7,0,0,0-1.5-1.51,4.37,4.37,0,0,0-4,0,3.67,3.67,0,0,0-1.46,1.51,5.05,5.05,0,0,0-.55,2.46,5.21,5.21,0,0,0,.54,2.49,3.57,3.57,0,0,0,1.44,1.51,4,4,0,0,0,2,.49A4.21,4.21,0,0,0,349.45,310.91Z" fill="#2f2e41" data-secondary="true"/>
<path d="M356.36,312.71a1.28,1.28,0,0,1-.4-1,1.35,1.35,0,0,1,1.37-1.36,1.27,1.27,0,0,1,.93.39,1.34,1.34,0,0,1,.39,1,1.31,1.31,0,0,1-.39,1,1.24,1.24,0,0,1-.93.4A1.28,1.28,0,0,1,356.36,312.71Z" fill="#2f2e41" data-secondary="true"/>
<path d="M361.82,298.56a1.3,1.3,0,0,1-.4-1,1.35,1.35,0,0,1,1.36-1.36,1.28,1.28,0,0,1,.94.39,1.33,1.33,0,0,1,.38,1,1.32,1.32,0,0,1-.38,1,1.29,1.29,0,0,1-.94.4A1.31,1.31,0,0,1,361.82,298.56Zm1.93,2.36V313h-2V300.92Z" fill="#2f2e41" data-secondary="true"/>
<path d="M377.05,302a5.11,5.11,0,0,1,1.36,3.84V313h-2v-6.83a3.89,3.89,0,0,0-.9-2.76,3.23,3.23,0,0,0-2.47-1,3.32,3.32,0,0,0-2.52,1,4.1,4.1,0,0,0-.93,2.89V313h-2V300.92h2v1.71a4,4,0,0,1,1.61-1.43,5,5,0,0,1,2.26-.5A4.88,4.88,0,0,1,377.05,302Z" fill="#2f2e41" data-secondary="true"/>
<path d="M323,356.73a1.33,1.33,0,0,1-.39-1,1.33,1.33,0,0,1,1.36-1.36,1.24,1.24,0,0,1,.93.39,1.34,1.34,0,0,1,.39,1,1.33,1.33,0,0,1-.39,1,1.25,1.25,0,0,1-.93.4A1.35,1.35,0,0,1,323,356.73Z" fill="#2f2e41" data-secondary="true"/>
<path d="M337.8,346a5.13,5.13,0,0,1,1.37,3.84V357h-2v-6.82a3.89,3.89,0,0,0-.9-2.76,3.25,3.25,0,0,0-2.47-1,3.29,3.29,0,0,0-2.52,1,4.07,4.07,0,0,0-.93,2.89V357h-2V344.93h2v1.72a3.92,3.92,0,0,1,1.61-1.43,5,5,0,0,1,2.26-.51A4.9,4.9,0,0,1,337.8,346Z" fill="#2f2e41" data-secondary="true"/>
<path d="M353.83,351.71h-9.64a3.79,3.79,0,0,0,3.91,3.79,3.66,3.66,0,0,0,2.17-.61,3.14,3.14,0,0,0,1.22-1.62h2.16a5.15,5.15,0,0,1-1.94,2.83,5.8,5.8,0,0,1-3.61,1.09,6.16,6.16,0,0,1-3.07-.77,5.39,5.39,0,0,1-2.12-2.19,6.8,6.8,0,0,1-.77-3.29,6.87,6.87,0,0,1,.75-3.28,5.29,5.29,0,0,1,2.1-2.17,6.31,6.31,0,0,1,3.11-.76,6,6,0,0,1,3,.75,5.25,5.25,0,0,1,2,2.06,6.14,6.14,0,0,1,.71,3C353.89,350.88,353.87,351.29,353.83,351.71Zm-2.51-3.6a3.27,3.27,0,0,0-1.38-1.25,4.23,4.23,0,0,0-1.92-.43,3.69,3.69,0,0,0-2.59,1,3.92,3.92,0,0,0-1.22,2.68h7.61A3.68,3.68,0,0,0,351.32,348.11Z" fill="#2f2e41" data-secondary="true"/>
<path d="M359.42,346.58v7.11a1.71,1.71,0,0,0,.37,1.25,1.85,1.85,0,0,0,1.3.36h1.47V357h-1.8a3.56,3.56,0,0,1-2.51-.77,3.28,3.28,0,0,1-.84-2.53v-7.11h-1.56v-1.65h1.56v-3h2v3h3.14v1.65Z" fill="#2f2e41" data-secondary="true"/>
<rect x="76.47" y="228.8" width="101.93" height="35.91" fill="#0071f2" opacity="0.29" data-primary="true"/>
<rect x="76.47" y="282.08" width="101.93" height="35.91" fill="#0071f2" opacity="0.29" data-primary="true"/>
<rect x="76.47" y="334.21" width="101.93" height="35.91" fill="#0071f2" opacity="0.29" data-primary="true"/>
<rect x="85.74" y="238.06" width="53.28" height="3.48" fill="#fff"/>
<rect x="149.44" y="238.06" width="19.69" height="3.48" fill="#fff"/>
<rect x="115.85" y="245.01" width="53.28" height="3.48" transform="translate(284.99 493.5) rotate(180)" fill="#fff"/>
<rect x="85.74" y="251.96" width="53.28" height="3.48" transform="translate(224.75 507.4) rotate(180)" fill="#fff"/>
<rect x="84.58" y="297.14" width="20.85" height="8.11" transform="translate(190 602.39) rotate(180)" fill="#fff"/>
<rect x="117.01" y="297.14" width="20.85" height="8.11" transform="translate(254.87 602.39) rotate(180)" fill="#fff"/>
<rect x="149.44" y="297.14" width="20.85" height="8.11" transform="translate(319.74 602.39) rotate(180)" fill="#fff"/>
<rect x="85.74" y="245.01" width="19.69" height="3.48" transform="translate(191.16 493.5) rotate(180)" fill="#fff"/>
<rect x="86.89" y="343.47" width="53.28" height="3.48" fill="#fff"/>
<rect x="150.6" y="343.47" width="19.69" height="3.48" fill="#fff"/>
<rect x="117.01" y="350.42" width="53.28" height="3.48" transform="translate(287.31 704.32) rotate(180)" fill="#fff"/>
<rect x="86.89" y="357.37" width="53.28" height="3.48" transform="translate(227.07 718.22) rotate(180)" fill="#fff"/>
<rect x="86.89" y="350.42" width="19.69" height="3.48" transform="translate(193.48 704.32) rotate(180)" fill="#fff"/>
<rect x="272.23" y="246.17" width="32.43" height="32.43" rx="3.3" fill="#fff"/>
<polygon points="286.12 270.19 279.48 262.77 280.35 262 286.14 268.48 297.17 256.78 298.01 257.57 286.12 270.19" fill="#0071f2" data-primary="true"/>
<rect x="272.23" y="290.19" width="32.43" height="32.43" rx="3.3" fill="#fff"/>
<polygon points="286.12 314.21 279.48 306.79 280.35 306.02 286.14 312.5 297.17 300.8 298.01 301.59 286.12 314.21" fill="#0071f2" data-primary="true"/>
<rect x="272.23" y="334.21" width="32.43" height="32.43" rx="3.3" fill="#fff"/>
<polygon points="286.12 358.23 279.48 350.81 280.35 350.04 286.14 356.52 297.17 344.81 298.01 345.61 286.12 358.23" fill="#0071f2" data-primary="true"/>
<rect x="35.35" y="468" width="129.73" height="105.41" rx="9.1" fill="#3f4347"/>
<circle cx="96.74" cy="487.69" r="6.37" fill="#fff" opacity="0.2"/>
<circle cx="114.11" cy="487.69" r="6.37" fill="#fff" opacity="0.2"/>
<circle cx="133.81" cy="487.69" r="6.37" fill="#fff" opacity="0.2"/>
<rect x="59.09" y="543.87" width="81.08" height="12.74" fill="#fff" opacity="0.2"/>
<rect x="264.7" y="468" width="129.73" height="105.41" rx="9.1" fill="#3f4347"/>
<circle cx="326.09" cy="487.69" r="6.37" fill="#fff" opacity="0.2"/>
<circle cx="343.47" cy="487.69" r="6.37" fill="#fff" opacity="0.2"/>
<circle cx="363.16" cy="487.69" r="6.37" fill="#fff" opacity="0.2"/>
<rect x="288.45" y="543.87" width="81.08" height="12.74" fill="#fff" opacity="0.2"/>
<rect x="99.64" y="415.29" width="1.16" height="4.05" fill="#2e3135"/>
<path d="M100.79,456H99.64V446.8h1.15Zm0-18.3H99.64V428.5h1.15Z" fill="#2e3135"/>
<rect x="99.64" y="465.1" width="1.16" height="4.05" fill="#2e3135"/>
<rect x="326.67" y="415.29" width="1.16" height="4.05" fill="#2e3135"/>
<path d="M327.83,456h-1.16V446.8h1.16Zm0-18.3h-1.16V428.5h1.16Z" fill="#2e3135"/>
<rect x="326.67" y="465.1" width="1.16" height="4.05" fill="#2e3135"/>
<rect x="165.08" y="511.21" width="4.05" height="1.16" fill="#2e3135"/>
<path d="M252.33,512.37H244v-1.16h8.32Zm-16.64,0h-8.32v-1.16h8.32Zm-16.64,0h-8.32v-1.16h8.32Zm-16.64,0h-8.32v-1.16h8.32Zm-16.64,0h-8.31v-1.16h8.31Z" fill="#2e3135"/>
<rect x="260.65" y="511.21" width="4.05" height="1.16" fill="#2e3135"/>
<path d="M700,231.53l1.65,13.22s-7.39,8.28-25.18,5.47l-.71-4.11S688.66,244.43,700,231.53Z" fill="#f7a48b"/>
<path d="M587.53,319.51l19.66,97.37c.35,1,.75,2.06,1.2,3.07h0c17.65,39.79,111.16,54,111.16,54,12.17,1.87,9.36-11.24,9.36-11.24l1.87-43.07c56.18-2.81,74-20.6,74-20.6a7.34,7.34,0,0,0,1.3-3.78c2.17-18.76-24.71-85.17-24.71-85.17-19.66-43.06-56.36-52.3-56.36-52.3-10.49,42.28-44.76,36.39-44.76,36.39C649.33,291.42,657.11,252,657.11,252c-9.08.86-18.08,5.69-18.08,5.69C601.58,268,587.53,319.51,587.53,319.51Zm177.9,62.73L732.66,386c1.87-26.21,8.42-59.92,8.42-59.92C743,331.68,765.43,382.24,765.43,382.24Z" fill="#0071f2" data-primary="true"/>
<path d="M696.85,386s22.7-7.49,27.38-34.64c0,0,6.09-40.63,12.52-51.06a2.07,2.07,0,0,1,3.8.76c.81,5.07,3.19,16.16,9.9,31.58L772,374.81a4.35,4.35,0,0,0,2.87,2.25c4.67,1.09,16.23,4.07,17.72,7.05l-27.15-1.87-24.35-56.18L732.66,386Z" opacity="0.2"/>
<path d="M608.39,420h0c17.65,39.79,111.16,54,111.16,54,12.17,1.87,9.36-11.24,9.36-11.24l1.87-43.07c56.18-2.81,74-20.6,74-20.6a7.34,7.34,0,0,0,1.3-3.78c-2.79,1.26-53,23.57-109.2,12.89v10.18s-4,9.48-21.08,18.5C675.77,436.88,648.9,449.25,608.39,420Z" opacity="0.2"/>
<path d="M569.74,504.89s-72.1,26.22-83.33-2.8c0,0-5.62-9.36-1.87-24.35,0,0-22.47-.94-20.6-28.09,0,0,0-9.45,9-19.39a45.27,45.27,0,0,1,4.13-4s.87.39,2.4,1.26c8.26,4.72,35.81,23.57,50,71.76Z" fill="#f9b499"/>
<path d="M569.74,504.89s-35.69,1.88-53,0c0,0-6-31.83-21.94-47.75,0,0-9.37,13.11-10.3,20.6,0,0-3.75-17.78,5.62-30,0,0-9-13.43-17.24-17.52a45.27,45.27,0,0,1,4.13-4s.87.39,2.4,1.26c8.49,4.79,37.33,24.15,50,71.76Z" fill="#f7a48b"/>
<path d="M696.85,418.38a17,17,0,0,1-17.56,6s0,.05,0,.13a4.28,4.28,0,0,1-5.46,4.72L660,425.16a4.28,4.28,0,0,1-2-7,16.06,16.06,0,0,1,2.55-2.21s-6.55-2.81-.93-10.3c0,0-6.56-2.81,3.74-15L641.5,389.1a4.68,4.68,0,0,1-4.35-4.67h0a4.69,4.69,0,0,1,5.06-4.67l31.46,2.48s11.08,0,19.13,2.62a5.41,5.41,0,0,1,3.59,4c1,4.28,2.28,12.55.46,19.33Z" fill="#f9b499"/>
<path d="M696.85,410.66s-9.14,10.9-32.54,10l14.9,5.61.08-1.87s10.78,3,17.56-6Z" fill="#f7a48b"/>
<path d="M661.52,430,647,341.33a5.11,5.11,0,0,0-3.49-4.05l-121-39a4.07,4.07,0,0,0-5.26,4.47l15,89.78,124.79,41.3A3.42,3.42,0,0,0,661.52,430Z" fill="#0071f2" data-primary="true"/>
<path d="M661.52,430,647,341.33a5.11,5.11,0,0,0-3.49-4.05l-121-39a4.07,4.07,0,0,0-5.26,4.47l15,89.78,124.79,41.3A3.42,3.42,0,0,0,661.52,430Z" fill="#fff" opacity="0.4"/>
<path d="M638.09,342c-38.44-11.91-80.91-26-118.91-39.33,38.47,11.94,80.94,26,118.91,39.33Z" fill="#fff" opacity="0.4"/>
<path d="M645,339c-6.87-.72-1.19,19-.94,23,3.16,19.31,7.36,46.26,10,65.56.11,3.69,2.26,5.88,6.05,4.86-3.94,1.23-6.13-.91-6.48-4.79C651.9,418,648.55,397,647,387.1l-3.75-25c-.21-4.23-5.32-24,1.82-23.15Z" fill="#fff" opacity="0.4"/>
<path d="M530.9,389.84s-3.29-10.41,7.94-20.71l5.27-5.27a37.37,37.37,0,0,1,5.8-4.68,13.06,13.06,0,0,0,3-2.6,2.29,2.29,0,0,0-1.52-3.7c-2.78-.34-8.52.81-18.59,10.22,0,0,1.39-5.2,15.44-12.69,0,0,6.61-3.17,6.83-7.31a2.26,2.26,0,0,0-1.95-2.37c-1.77-.26-4.46.51-11.44,5l-6.55,4.69s19.66-15,16.85-20.6c0,0-1.87-4.68-11.23,5.61l-11.24,10.3s14-14,11.24-17.79c0,0-4.69-3.74-14.05,8.43,0,0-9.57,8.67-10.4,24.94C516.27,361.3,516.4,387.14,530.9,389.84Z" fill="#f9b499"/>
<path d="M533.16,376.17s-3.65,5.35-2.26,13.67c0,0-14.74-.55-14.63-31.23A45.15,45.15,0,0,1,520,346.08S519,376.66,533.16,376.17Z" fill="#f7a48b"/>
<path d="M616.06,328.43l-7.35-2.37s3.16-33.71,22.83-46.81A93.76,93.76,0,0,0,616.06,328.43Z" opacity="0.2"/>
<ellipse cx="671.89" cy="201.1" rx="45.68" ry="39.49" transform="translate(355.41 826.97) rotate(-79.84)" fill="#f9b499"/>
<path d="M675.77,246.11l.71,4.11c-23.41,0-37.45,7.49-37.45,7.49-32.77-10.3-11.24-58-11.24-58,5.62-14,11.24-30,11.24-30,8.42-29,25.28-27.15,25.28-27.15A49.51,49.51,0,0,1,684,137.87c18.39.89,29.26,8.89,35.6,17a45.41,45.41,0,0,1,8.86,21.44,78.52,78.52,0,0,0,10.09,27.88c2.4,4,4.57,8.17,6.57,12.4l4.42,9.32c14,30-2.94,42.88-2.94,42.88C730.36,256,702.69,253,702.69,253L700,231.53a52.45,52.45,0,0,0,11.58-32.41c-37.92-13.64-52-34.1-52-34.1s-12.72,11.83-22.75,16.68c0,0-13.46,25.75,4.64,50.41C641.52,232.11,652.59,249.49,675.77,246.11Z" fill="#2f2e41" data-secondary="true"/>
<ellipse cx="711.59" cy="211.37" rx="12.64" ry="10.77" transform="translate(221.55 768.95) rotate(-65.23)" fill="#f9b499"/>
</svg>